<svg id="Capa_1" enable-background="new 0 0 511.991 511.991" height="512" viewBox="0 0 511.991 511.991" width="512" xmlns="http://www.w3.org/2000/svg"><g><g><path d="m125.39 236.596c-5.859-5.859-5.859-15.352 0-21.211l30-30c5.859-5.859 15.352-5.859 21.211 0s5.859 15.352 0 21.211l-30 30c-5.859 5.859-15.352 5.86-21.211 0z" fill="#ffb64c"/></g><path d="m302.651 308.656h-46.655-46.656c-6.87 40.62-28.638 47.124-58.77 56.118-38.533 11.514-86.039 25.988-89.264 121.928l23.877 5.449 170.812-68.322 72.51-29.004 35.603-29.24c-35.164-10.52-54.717-17.073-61.457-56.929z" fill="#ffb3b3"/><path d="m364.108 365.585c-35.164-10.519-54.717-17.073-61.458-56.929h-46.655v115.173l72.51-29.004z" fill="#f99"/><path d="m403.932 381.971-45.965 3.386-101.971 40.787-141.78 56.71-35.346 29.137h177.125 180c8.291 0 15-6.709 15-15 0-68.909-21.234-99.026-47.063-115.02z" fill="#f2f2fc"/><path d="m450.995 496.991c0-68.908-21.235-99.025-47.064-115.02l-45.965 3.386-101.971 40.787v85.847h180c8.291 0 15-6.709 15-15z" fill="#e2d9fb"/><path d="m364.108 365.585-108.113 43.244-194.688 77.873c-.115 3.409-.311 6.669-.311 10.289 0 8.291 6.709 15 15 15h2.875l177.125-70.847 147.936-59.172c-12.829-7.944-26.745-12.461-39.824-16.387z" fill="#80bfff"/><path d="m364.108 365.585-108.113 43.244v32.314l147.936-59.172c-12.828-7.943-26.744-12.46-39.823-16.386z" fill="#4895ff"/><path d="m390.995 180.991h-90v256c0 8.291 6.709 15 15 15 57.891 0 105-47.109 105-105v-136z" fill="#ff9100"/><path d="m255.995 120.991h-75l-30 60v45c0 57.99 47.01 106 105 106s105-48.01 105-106v-105z" fill="#fcc"/><path d="m360.995 225.991v-105h-105v211c57.99 0 105-48.011 105-106z" fill="#ffb3b3"/><path d="m287.372.549c-.029 0-.059 0-.103 0-2.463-.242-16.183-1.586-31.274 1.104-11.387 2.031-23.531 6.019-32.344 14.114-4.735 4.349-7.802 9.679-9.897 15.461-35.519 5.891-62.759 36.601-62.759 73.762v76h15c23.705 0 48.155-13.233 61.289-31.816 7.747 10.712 17.71 19.33 28.711 26.786 40.88 27.704 100.051 35.089 149.355 35.089l15.645-.059v-75c0-74.414-60.498-135.441-133.623-135.441z" fill="#ffb64c"/><path d="m420.995 210.991v-75c0-74.414-60.498-135.441-133.623-135.441-.029 0-.059 0-.103 0-2.463-.242-16.183-1.586-31.274 1.104v174.307c40.88 27.704 100.051 35.089 149.355 35.089z" fill="#ff9100"/></g></svg>