<svg id="Capa_1" enable-background="new 0 0 512 512" height="512" viewBox="0 0 512 512" width="512" xmlns="http://www.w3.org/2000/svg"><g><path d="m466 211c-8.291 0-15 6.709-15 15 0 8.276-6.724 15-15 15s-15-6.724-15-15v-60c0-91.128-73.872-166-165-166s-165 74.872-165 166v60c0 8.276-6.724 15-15 15s-15-6.724-15-15c0-8.291-6.709-15-15-15s-15 6.709-15 15v30c0 41.353 33.647 76 75 76h150 150c41.353 0 75-34.647 75-76v-30c0-8.291-6.709-15-15-15z" fill="#474f54"/><path d="m481 256v-30c0-8.291-6.709-15-15-15s-15 6.709-15 15c0 8.276-6.724 15-15 15s-15-6.724-15-15v-60c0-91.128-73.872-166-165-166v332h150c41.353 0 75-34.647 75-76z" fill="#32393f"/><path d="m361.425 364.783c-30.132-8.994-51.899-15.498-58.77-56.118h-46.655-46.655c-6.87 40.62-28.638 47.124-58.77 56.118-38.489 11.501-85.93 25.953-89.253 121.595l25.285 5.806 169.393-61.595 94.103-34.219 29.561-25.748c-6.165-2.188-12.31-4.068-18.239-5.839z" fill="#ffb3b3"/><path d="m379.664 370.622c-6.165-2.188-12.31-4.069-18.239-5.839-30.132-8.994-51.899-15.498-58.77-56.118h-46.655v121.924l94.103-34.219z" fill="#f99"/><path d="m414.771 389.77-37.991-6.641-120.78 43.917-164.057 59.656-13.321 25.298h177.378 180c8.291 0 15-6.709 15-15 0-58.991-15.551-89.601-36.229-107.23z" fill="#e2d9fb"/><path d="m451 497c0-58.991-15.551-89.601-36.229-107.23l-37.991-6.641-120.78 43.917v84.954h180c8.291 0 15-6.709 15-15z" fill="#c7c1dc"/><path d="m379.664 370.622-123.664 44.967-194.678 70.789c-.122 3.514-.322 6.885-.322 10.622 0 8.291 6.709 15 15 15h2.622l177.378-64.499 158.771-57.731c-10.798-9.209-22.987-14.848-35.107-19.148z" fill="#f2f2fc"/><path d="m379.664 370.622-123.664 44.967v31.912l158.771-57.731c-10.798-9.209-22.987-14.848-35.107-19.148z" fill="#e2d9fb"/><path d="m346 151h-5.142c-29.976 0-58.817-7.064-84.858-20.11-18.008-9.023-34.719-20.823-49.378-35.48-9.415-9.44-25.622-2.691-25.622 10.59v30c0 8.276-6.724 15-15 15-8.291 0-15 6.709-15 15v56.44c0 58.295 44.152 109.53 104.824 109.53.06 0 .115-.018.176-.018 58.202-.099 105-48.184 105-105.952v-60c0-8.291-6.709-15-15-15z" fill="#fcc"/><path d="m361 226v-60c0-8.291-6.709-15-15-15h-5.142c-29.976 0-58.817-7.064-84.858-20.11v201.063c58.202-.099 105-48.185 105-105.953z" fill="#ffb3b3"/></g></svg>