<svg id="Capa_1" enable-background="new 0 0 512 512" height="512" viewBox="0 0 512 512" width="512" xmlns="http://www.w3.org/2000/svg"><g><path d="m331 352.528c-14.112-7.683-24.093-19.726-28.345-44.863h-46.655-46.655c-6.87 40.62-28.638 47.124-58.77 56.118-27.433 8.198-59.48 17.767-76.835 57.217l23.509 15h158.751 28.755c25.503 0 61.245-20.742 61.245-46.245z" fill="#ffb3b3"/><path d="m346 389.755-15-37.227c-14.112-7.683-24.093-19.726-28.345-44.863h-46.655v128.335h28.755c25.503 0 61.245-20.742 61.245-46.245z" fill="#f99"/><path d="m361 363.653-15 11.102c0 42.041-19.204 61.245-61.245 61.245h-28.755-166.251l-24.849 15c-2.439 12.863-3.9 28.594-3.9 46 0 8.291 6.709 15 15 15h180 180c8.291 0 15-6.709 15-15 0-91.983-34.162-116.671-90-133.347z" fill="#80bfff"/><path d="m451 497c0-91.983-34.162-116.671-90-133.347l-15 11.102c0 42.041-19.204 61.245-61.245 61.245h-28.755v76h180c8.291 0 15-6.709 15-15z" fill="#4895ff"/><path d="m331 352.528v22.227c0 25.503-20.742 46.245-46.245 46.245h-28.755-182.26c-3.723 8.461-6.661 18.506-8.84 30h191.1 28.755c42.041 0 76.245-34.204 76.245-76.245v-11.102c-11.309-3.374-21.42-6.454-30-11.125z" fill="#f2f2fc"/><path d="m361 374.755v-11.102c-11.309-3.375-21.42-6.454-30-11.125v22.227c0 25.503-20.742 46.245-46.245 46.245h-28.755v30h28.755c42.041 0 76.245-34.204 76.245-76.245z" fill="#e2d9fb"/><path d="m256 0c-91.128 0-165 74.872-165 166v120c0 24.853 20.147 45 45 45 8.284 0 15-6.716 15-15v-90h105 105v90c0 8.284 6.716 15 15 15 24.853 0 45-20.147 45-45v-120c0-91.128-73.872-166-165-166z" fill="#80bfff"/><path d="m361 316c0 8.284 6.716 15 15 15 24.853 0 45-20.147 45-45v-120c0-91.128-73.872-166-165-166v226h105z" fill="#4895ff"/><path d="m346 151h-90-90c-8.284 0-15 6.716-15 15v60c0 57.99 47.01 105 105 105s105-47.01 105-105v-60c0-8.284-6.716-15-15-15z" fill="#fcc"/><path d="m361 226v-60c0-8.284-6.716-15-15-15h-90v180c57.99 0 105-47.01 105-105z" fill="#ffb3b3"/></g></svg>