<svg id="Capa_1" enable-background="new 0 0 512 512" height="512" viewBox="0 0 512 512" width="512" xmlns="http://www.w3.org/2000/svg"><g><g><path d="m365.395 236.605-30-30c-5.859-5.859-5.859-15.352 0-21.211s15.352-5.859 21.211 0l30 30c5.859 5.859 5.859 15.352 0 21.211-5.86 5.86-15.352 5.86-21.211 0z" fill="#ff9100"/></g><g><path d="m125.395 236.605c-5.859-5.859-5.859-15.352 0-21.211l30-30c5.859-5.859 15.352-5.859 21.211 0s5.859 15.352 0 21.211l-30 30c-5.86 5.86-15.352 5.86-21.211 0z" fill="#ffb64c"/></g><path d="m321.413 343.942h-65.413-65.413c-5.361 4.03-11.981 7.112-18.933 9.825l22.886 106.776 55.727 51.457h5.733 5.722l59.733-60.46 18.895-97.786c-6.977-2.72-13.605-5.806-18.937-9.812z" fill="#474f54"/><path d="m321.455 451.54 18.895-97.786c-6.976-2.721-13.605-5.806-18.937-9.813h-65.413v168.059h5.722z" fill="#32393f"/><path d="m301 307.665h-45-45c-2.961 17.51-9.977 28.433-20.413 36.277 19.708 10.97 41.997 17.058 65.413 17.058s45.705-6.088 65.413-17.058c-10.436-7.844-17.452-18.767-20.413-36.277z" fill="#a34f3e"/><path d="m301 307.665h-45v53.335c23.416 0 45.705-6.088 65.413-17.058-10.436-7.844-17.452-18.767-20.413-36.277z" fill="#873f2e"/><path d="m256 61c-57.891 0-105 47.109-105 105v60c0 57.891 47.109 105 105 105s105-47.109 105-105v-60c0-57.891-47.109-105-105-105z" fill="#c86e59"/><path d="m361 226v-60c0-57.891-47.109-105-105-105v270c57.891 0 105-47.109 105-105z" fill="#a34f3e"/><path d="m373.437 363.666c-10.714-2.64-22.41-5.748-33.087-9.911l-78.628 158.245h129.278l15-25.625v-76l-15-42.197c-5.938-1.643-11.838-3.104-17.563-4.512z" fill="#ff9100"/><path d="m171.654 353.767c-10.693 4.173-22.379 7.258-33.091 9.899-5.726 1.408-11.625 2.869-17.563 4.512l-15 36.572v74.75l15 32.5h129.267z" fill="#ffb64c"/><path d="m256 0c-8.291 0-15 6.709-15 15v91c0 8.291 6.709 15 15 15s15-6.709 15-15v-91c0-8.291-6.709-15-15-15z" fill="#474f54"/><path d="m271 106v-91c0-8.291-6.709-15-15-15v121c8.291 0 15-6.709 15-15z" fill="#32393f"/><path d="m31 497c0 8.291 6.709 15 15 15h75v-143.822c-43.77 12.103-90 35.619-90 128.822z" fill="#a34f3e"/><path d="m391 368.178v143.822h75c8.291 0 15-6.709 15-15 0-93.203-46.23-116.719-90-128.822z" fill="#873f2e"/></g></svg>