<svg id="Capa_1" enable-background="new 0 0 512 512" height="512" viewBox="0 0 512 512" width="512" xmlns="http://www.w3.org/2000/svg"><g><g><path d="m98.397 238.935c-7.148-4.204-9.521-13.403-5.332-20.537l60-101.997c4.189-7.134 13.389-9.536 20.537-5.332s9.521 13.403 5.332 20.537l-60 101.997c-4.231 7.199-13.476 9.49-20.537 5.332z" fill="#474f54"/></g><g><path d="m65.395 176.605c-5.859-5.859-5.859-15.352 0-21.211l90-91c5.859-5.859 15.352-5.859 21.211 0s5.859 15.352 0 21.211l-90 91c-5.86 5.86-15.352 5.86-21.211 0z" fill="#474f54"/></g><g><path d="m425.395 176.605-90-91c-5.859-5.859-5.859-15.352 0-21.211s15.352-5.859 21.211 0l90 91c5.859 5.859 5.859 15.352 0 21.211-5.86 5.86-15.352 5.86-21.211 0z" fill="#32393f"/></g><g><path d="m393.065 233.603-60-101.997c-4.189-7.134-1.816-16.333 5.332-20.537s16.318-1.802 20.537 5.332l60 101.997c4.189 7.134 1.816 16.333-5.332 20.537-7.053 4.154-16.301 1.874-20.537-5.332z" fill="#32393f"/></g><path d="m286 0h-30-30c-41.422 0-75 33.578-75 75v76l30 30h75 75l30-30v-76c0-41.422-33.578-75-75-75z" fill="#ffb64c"/><path d="m361 151v-76c0-41.422-33.578-75-75-75h-30v181h75z" fill="#ff9100"/><path d="m391 368.178c-10.063-2.783-20.942-5.224-31.423-8.106h-103.577-103.577c-10.488 2.884-21.372 5.327-31.423 8.106l-15 26.104v92.875l15 24.843h135 135l15-21.563v-91.937z" fill="#474f54"/><path d="m406 490.438v-91.938l-15-30.322c-10.063-2.783-20.942-5.224-31.423-8.106h-103.577v151.928h135z" fill="#32393f"/><path d="m331 349.532c-.126-.068-.211-.143-.335-.211l-74.665.002-74.665.004c-.125.068-.209.137-.335.205-8.351 4.449-18.274 7.707-28.577 10.54 6.96 51.194 50.506 90.928 103.577 90.928s96.617-39.734 103.577-90.928c-10.301-2.831-20.22-6.087-28.577-10.54z" fill="#f2f2fc"/><path d="m359.577 360.072c-10.302-2.831-20.22-6.086-28.577-10.54-.126-.068-.211-.143-.335-.211l-74.665.002v101.677c53.071 0 96.617-39.734 103.577-90.928z" fill="#e2d9fb"/><path d="m301 307.665h-45-45c-7.339 16.628-7.896 29.918-29.665 41.662 1.778 39.844 34.382 71.673 74.665 71.673s72.889-31.833 74.665-71.678c-22.982-12.415-24.265-29.422-29.665-41.657z" fill="#ffccb3"/><path d="m330.665 349.322c-22.982-12.415-24.265-29.422-29.665-41.657h-45v113.335c40.283 0 72.889-31.833 74.665-71.678z" fill="#fb9"/><path d="m291.728 256h-35.728-35.728l-9.631 64.272c13.786 6.667 29.048 10.728 45.359 10.728 16.313 0 31.575-4.061 45.363-10.73z" fill="#fdc"/><path d="m291.728 256h-35.728v75c16.313 0 31.575-4.061 45.363-10.73z" fill="#ffccb3"/><path d="m256 151h-105v75c0 30.703 13.486 58.11 34.568 77.327l27.014-39.036c2.549-5.083 7.734-8.291 13.418-8.291h30 30c5.684 0 10.869 3.208 13.418 8.291l27.017 39.033c21.081-19.219 34.565-46.623 34.565-77.324v-75z" fill="#fdc"/><path d="m299.418 264.291 27.017 39.033c21.081-19.219 34.565-46.623 34.565-77.324v-75h-105v105h30c5.684 0 10.869 3.208 13.418 8.291z" fill="#ffccb3"/><path d="m31 497c0 8.291 6.709 15 15 15h75v-143.822c-43.77 12.103-90 35.619-90 128.822z" fill="#ffb64c"/><path d="m391 368.178v143.822h75c8.291 0 15-6.709 15-15 0-93.203-46.23-116.719-90-128.822z" fill="#ff9100"/><path d="m256 271c-41.422 0-75 33.578-75 75 0 1.139.286 2.199.335 3.327 21.769-11.744 22.326-25.034 29.665-41.662h45 45c5.4 12.235 6.683 29.242 29.665 41.656.049-1.126.335-2.183.335-3.322 0-41.421-33.578-74.999-75-74.999z" fill="none"/><path d="m299.418 249.291c-2.549-5.083-7.734-8.291-13.418-8.291h-30-30c-5.684 0-10.869 3.208-13.418 8.291l-27.014 54.036c7.469 6.808 15.879 12.499 25.073 16.945l24.631-49.272h20.728 20.728l24.635 49.27c9.192-4.446 17.604-10.139 25.073-16.946z" fill="#474f54"/><path d="m301.363 320.27c9.192-4.446 17.604-10.139 25.073-16.946l-27.017-54.033c-2.55-5.083-7.735-8.291-13.419-8.291h-30v30h20.728z" fill="#32393f"/></g></svg>