<svg id="Capa_1" enable-background="new 0 0 512 512" height="512" viewBox="0 0 512 512" width="512" xmlns="http://www.w3.org/2000/svg"><g><g><path d="m198.007 95.556-30-51.958c-4.146-7.178-1.685-16.348 5.493-20.493 7.134-4.146 16.348-1.714 20.493 5.493l30 51.958c4.146 7.178 1.685 16.348-5.493 20.493-7.153 4.132-16.344 1.691-20.493-5.493z" fill="#474f54"/></g><g><path d="m166 181h-60c-8.291 0-15-6.709-15-15s6.709-15 15-15h60c8.291 0 15 6.709 15 15s-6.709 15-15 15z" fill="#474f54"/></g><path d="m133.598 78.007c-7.192-4.146-16.333-1.699-20.493 5.493-4.146 7.178-1.685 16.348 5.493 20.493l40.06 23.13 22.652-12.93-7.37-12.892z" fill="#474f54"/><g><path d="m406 181h-60c-8.291 0-15-6.709-15-15s6.709-15 15-15h60c8.291 0 15 6.709 15 15s-6.709 15-15 15z" fill="#32393f"/></g><path d="m398.896 83.5c-4.16-7.192-13.345-9.639-20.493-5.493l-40.342 23.295-7.158 13.251 22.44 12.57 40.06-23.13c7.177-4.145 9.638-13.315 5.493-20.493z" fill="#32393f"/><g><path d="m293.5 101.049c-7.178-4.146-9.639-13.315-5.493-20.493l30-51.958c4.146-7.207 13.315-9.639 20.493-5.493s9.639 13.315 5.493 20.493l-30 51.958c-4.156 7.196-13.354 9.617-20.493 5.493z" fill="#32393f"/></g><g><path d="m163.003 356.919c-7.386 2.36-15.45 4.534-24.439 6.747-47.93 11.792-107.564 27.484-107.564 133.334 0 8.291 6.709 15 15 15h135z" fill="#474f54"/></g><g><path d="m373.437 363.666c-8.989-2.214-17.053-4.387-24.439-6.747l-17.998 155.081h135c8.291 0 15-6.709 15-15 0-105.85-59.634-121.542-107.563-133.334z" fill="#32393f"/></g><g><path d="m163.003 356.919-53.882 69.926c-4.6 5.977-4.058 14.429 1.274 19.761l70.605 65.394 15-22.235v-117.471l-15-22.416c-5.343 2.697-11.413 4.939-17.997 7.041z" fill="#575f64"/></g><g><path d="m402.88 426.845-53.882-69.926c-6.584-2.102-12.654-4.343-17.997-7.04l-15 19.592v121.353l14.999 21.176 70.605-65.395c5.333-5.332 5.874-13.784 1.275-19.76z" fill="#474f54"/></g><g><path d="m301 307.665h-45-45c-3.788 22.407-14.094 34.184-30 42.213v162.122h75 75v-162.122c-15.906-8.029-26.212-19.806-30-42.213z" fill="#f2f2fc"/></g><g><path d="m331 349.878c-15.906-8.029-26.212-19.807-30-42.213h-45v204.335h75z" fill="#e2d9fb"/></g><g><path d="m256 307.665h-45v68.335c0 24.853 20.147 45 45 45s45-20.147 45-45v-68.335z" fill="#a34f3e"/></g><g><path d="m301 376v-68.335h-45v113.335c24.853 0 45-20.147 45-45z" fill="#873f2e"/></g><g><path d="m378.402 253.993-39.902-23.042c-7.178-4.146-9.639-13.315-5.493-20.493 4.131-7.192 13.301-9.653 20.493-5.493l39.902 23.042c7.178 4.146 9.639 13.315 5.493 20.493-4.156 7.197-13.354 9.617-20.493 5.493z" fill="#32393f"/></g><g><path d="m113.104 248.5c-4.146-7.178-1.685-16.348 5.493-20.493l39.902-23.042c7.119-4.16 16.333-1.699 20.493 5.493 4.146 7.178 1.685 16.348-5.493 20.493l-39.902 23.042c-7.152 4.132-16.344 1.691-20.493-5.493z" fill="#474f54"/></g><path d="m256 0c-8.291 0-15 6.709-15 15v61c0 8.291 6.709 15 15 15s15-6.709 15-15v-61c0-8.291-6.709-15-15-15z" fill="#474f54"/><path d="m271 76v-61c0-8.291-6.709-15-15-15v91c8.291 0 15-6.709 15-15z" fill="#32393f"/><path d="m353.343 127.123h-97.343-97.343c-4.832 12.052-7.657 25.122-7.657 38.877v60c0 57.891 47.109 105 105 105s105-47.109 105-105v-60c0-13.755-2.825-26.825-7.657-38.877z" fill="#c86e59"/><path d="m361 226v-60c0-13.755-2.825-26.825-7.657-38.877h-97.343v203.877c57.891 0 105-47.109 105-105z" fill="#a34f3e"/><path d="m338.061 101.302c-19.247-24.352-48.688-40.302-82.061-40.302s-62.814 15.95-82.061 40.302c-6.207 7.853-11.501 16.393-15.282 25.822l89.843 51.87c2.314 1.333 4.907 2.007 7.5 2.007s5.186-.674 7.5-2.007l89.843-51.87c-3.782-9.429-9.075-17.969-15.282-25.822z" fill="#474f54"/><path d="m353.343 127.123c-3.781-9.428-9.075-17.968-15.282-25.822-19.247-24.351-48.688-40.301-82.061-40.301v120c2.593 0 5.186-.674 7.5-2.007z" fill="#32393f"/></g></svg>