<svg id="Capa_1" enable-background="new 0 0 512 512" height="512" viewBox="0 0 512 512" width="512" xmlns="http://www.w3.org/2000/svg"><g><path d="m361.425 363.783c-2.388-.712-4.627-1.41-6.907-2.109l-98.518.033-98.74.035c-2.21.677-4.374 1.351-6.685 2.042-39.902 11.923-89.575 27.747-89.575 133.216 0 8.291 6.709 15 15 15h180 180c8.291 0 15-6.709 15-15 0-105.469-49.673-121.293-89.575-133.217z" fill="#8cd96b"/><path d="m451 497c0-105.469-49.673-121.293-89.575-133.217-2.388-.712-4.627-1.41-6.907-2.109l-98.518.033v150.293h180c8.291 0 15-6.709 15-15z" fill="#5ab267"/><path d="m326.986 349.944-70.986.046-71.127.046c-7.828 5.072-17.115 8.491-27.612 11.706 19.209 35.863 56.238 59.258 98.739 59.258 41.841 0 79.116-23.417 98.518-59.326-10.47-3.214-19.73-6.641-27.532-11.73z" fill="#f2f2fc"/><path d="m354.518 361.674c-10.47-3.214-19.73-6.641-27.532-11.73l-70.986.046v71.01c41.841 0 79.116-23.417 98.518-59.326z" fill="#e2d9fb"/><path d="m302.655 307.665h-46.655-46.655c-3.84 22.703-12.466 34.592-24.472 42.371 14.45 24.917 40.946 40.964 71.127 40.964 29.767 0 56.393-16.009 70.986-41.056-11.933-7.782-20.506-19.664-24.331-42.279z" fill="#ffccb3"/><path d="m326.986 349.944c-11.933-7.782-20.506-19.664-24.331-42.279h-46.655v83.335c29.767 0 56.393-16.009 70.986-41.056z" fill="#fb9"/><g><path d="m121 120c-33.091 0-60-26.909-60-60s26.909-60 60-60 60 26.909 60 60-26.909 60-60 60z" fill="#575f64"/></g><g><path d="m391 120c-33.091 0-60-26.909-60-60s26.909-60 60-60 60 26.909 60 60-26.909 60-60 60z" fill="#474f54"/></g><path d="m256 165h-105v61c0 57.891 47.109 105 105 105s105-47.109 105-105v-61z" fill="#fdc"/><path d="m361 226v-61h-105v166c57.891 0 105-47.109 105-105z" fill="#ffccb3"/><path d="m256 30c-74.443 0-135 60.557-135 135 0 8.291 6.709 15 15 15h120 120c8.291 0 15-6.709 15-15 0-74.443-60.557-135-135-135z" fill="#474f54"/><path d="m391 165c0-74.443-60.557-135-135-135v150h120c8.291 0 15-6.709 15-15z" fill="#32393f"/></g></svg>