<svg id="Capa_1" enable-background="new 0 0 512 512" height="512" viewBox="0 0 512 512" width="512" xmlns="http://www.w3.org/2000/svg"><g><path d="m256 0c-91.128 0-165 74.872-165 166v255h165 165v-255c0-91.128-73.872-166-165-166z" fill="#474f54"/><path d="m421 166c0-91.128-73.872-166-165-166v421h165z" fill="#32393f"/><path d="m361 363.653-12.449 25.384-17.551-36.509c-14.112-7.683-24.093-19.726-28.345-44.863h-46.655-46.655c-4.252 25.137-14.233 37.18-28.345 44.863l-15.749 35.841-14.251-24.716c-56.398 16.842-90 41.862-90 133.347 0 8.291 6.709 15 15 15h45l30-30h105 105l30 30h45c8.291 0 15-6.709 15-15 0-91.983-34.162-116.671-90-133.347z" fill="#ffb3b3"/><path d="m391 512h45c8.291 0 15-6.709 15-15 0-91.983-34.162-116.671-90-133.347l-12.449 25.384-17.551-36.509c-14.112-7.683-24.093-19.726-28.345-44.863h-46.655v174.335h105z" fill="#f99"/><path d="m151 363.653v87.347h30v-98.472c-8.58 4.671-18.691 7.751-30 11.125z" fill="#474f54"/><path d="m331 352.528v98.472h30v-87.347c-11.309-3.374-21.42-6.454-30-11.125z" fill="#32393f"/><path d="m316 421c-24.65 0-46.328 12.05-60 30.41-13.672-18.36-35.35-30.41-60-30.41-41.422 0-75 34.578-75 76v15h135 135v-15c0-41.422-33.578-76-75-76z" fill="#474f54"/><path d="m391 497c0-41.422-33.578-76-75-76-24.65 0-46.328 12.05-60 30.41v60.59h135z" fill="#32393f"/><path d="m181 226v-30c0-8.291-6.709-15-15-15s-15 6.709-15 15v30c0 4.647.784 9.082 1.371 13.57l15.517 14.509 14.388-15.455c-.705-4.126-1.276-8.301-1.276-12.624z" fill="#474f54"/><path d="m301 91c-18.007 0-33.995 8.134-45 20.729-9.219 10.552-15 24.186-15 39.271v15c0 32.179-20.801 64.241-58.724 72.623-9.692 2.142-19.708 2.706-29.905.947 6.962 53.137 52.016 91.43 103.629 91.43 57.891 0 105-47.109 105-105v-75c0-33.091-26.909-60-60-60z" fill="#fcc"/><path d="m361 226v-75c0-33.091-26.909-60-60-60-18.007 0-33.995 8.134-45 20.729v219.271c57.891 0 105-47.109 105-105z" fill="#ffb3b3"/></g></svg>