<svg id="Capa_1" enable-background="new 0 0 512 512" height="512" viewBox="0 0 512 512" width="512" xmlns="http://www.w3.org/2000/svg"><g><path d="m163.003 356.919c-7.386 2.36-15.45 4.534-24.439 6.747-47.93 11.792-107.564 27.484-107.564 133.334 0 8.291 6.709 15 15 15h135z" fill="#80bfff"/><path d="m373.437 363.666c-8.989-2.214-17.053-4.387-24.439-6.747l-17.998 155.081h135c8.291 0 15-6.709 15-15 0-105.85-59.634-121.542-107.563-133.334z" fill="#4895ff"/><path d="m163.003 356.919-53.882 69.926c-4.6 5.977-4.058 14.429 1.274 19.761l70.605 65.394 15-22.235v-117.471l-15-22.416c-5.343 2.697-11.413 4.939-17.997 7.041z" fill="#575f64"/><path d="m402.88 426.845-53.882-69.926c-6.584-2.102-12.654-4.343-17.997-7.04l-15 19.592v121.353l14.999 21.176 70.605-65.395c5.333-5.332 5.874-13.784 1.275-19.76z" fill="#474f54"/><path d="m301 307.665h-45-45c-3.788 22.407-14.094 34.184-30 42.213v162.122h75 75v-162.122c-15.906-8.029-26.212-19.806-30-42.213z" fill="#f66"/><path d="m331 349.878c-15.906-8.029-26.212-19.807-30-42.213h-45v204.335h75z" fill="#e62e2e"/><path d="m256 307.665h-45v68.335c0 24.853 20.147 45 45 45s45-20.147 45-45v-68.335z" fill="#a34f3e"/><path d="m301 376v-68.335h-45v113.335c24.853 0 45-20.147 45-45z" fill="#873f2e"/><path d="m353.343 127.123h-97.343-97.343c-4.832 12.052-7.657 25.122-7.657 38.877v60c0 57.891 47.109 105 105 105s105-47.109 105-105v-60c0-13.755-2.825-26.825-7.657-38.877z" fill="#c86e59"/><path d="m361 226v-60c0-13.755-2.825-26.825-7.657-38.877h-97.343v203.877c57.891 0 105-47.109 105-105z" fill="#a34f3e"/><path d="m396.815 80.702c-3.677-3.896-9.038-5.479-14.063-4.365-3.926.425-36.328 1.948-39.199 2.095 0 0 2.446-41.265 2.446-42.305 0-5.186-2.666-10.225-7.471-13.008-5.786-3.369-12.92-2.388-17.593 1.86-3.018 2.197-29.81 19.453-32.871 21.431 0 0-16.143-33.629-17.783-37.335-1.932-6.05-8.107-9.075-14.281-9.075s-12.349 3.025-14.282 9.075c-1.641 3.706-17.783 37.335-17.783 37.335-3.062-1.978-29.839-19.233-32.871-21.431-4.688-4.248-11.792-5.229-17.593-1.86-4.805 2.783-7.471 7.822-7.471 13.008 0 1.04 2.285 38.701 2.461 42.29-3.853-.19-36.006-1.743-39.243-2.095-5.01-1.055-10.4.513-14.077 4.424-4.731 5.068-5.376 12.729-1.567 18.516l37.426 58.711 105 .002 105 .002 37.427-58.715c3.823-5.816 3.164-13.491-1.612-18.56z" fill="#474f54"/><path d="m398.427 99.262c3.823-5.815 3.164-13.491-1.611-18.56-3.677-3.896-9.038-5.479-14.063-4.365-3.926.425-36.328 1.948-39.199 2.095 0 0 2.446-41.265 2.446-42.305 0-5.186-2.666-10.225-7.471-13.008-5.786-3.369-12.92-2.388-17.593 1.86-3.018 2.197-29.81 19.453-32.871 21.431 0 0-16.143-33.629-17.783-37.335-1.933-6.05-8.108-9.075-14.282-9.075v157.974l105 .002z" fill="#32393f"/></g></svg>