<svg id="Capa_1" enable-background="new 0 0 512 512" height="512" viewBox="0 0 512 512" width="512" xmlns="http://www.w3.org/2000/svg"><path d="m331 352.528c-14.112-7.683-24.093-19.726-28.345-44.863h-46.655-46.655c-6.87 40.62-28.638 47.124-58.77 56.118-39.902 11.924-89.575 27.748-89.575 133.217 0 8.291 6.709 15 15 15h45l15-15c0-41.353 33.647-61 75-61h45 45c24.814 0 45-35.186 45-60z" fill="#a34f3e"/><path d="m346 376-15-23.472c-14.112-7.683-24.093-19.726-28.345-44.863h-46.655v128.335h45c24.814 0 45-35.186 45-60z" fill="#873f2e"/><path d="m361 363.653-15 12.347c0 41.353-33.647 60-75 60h-15-75c-24.814 0-45 36.186-45 61l15 15h105 180c8.291 0 15-6.709 15-15 0-96.196-38.625-117.934-90-133.347z" fill="#ffb64c"/><path d="m451 497c0-96.196-38.625-117.934-90-133.347l-15 12.347c0 41.353-33.647 60-75 60h-15v76h180c8.291 0 15-6.709 15-15z" fill="#ff9100"/><path d="m331 352.528v23.472c0 24.814-20.186 45-45 45h-30-60c-41.353 0-75 34.647-75 76v15h30v-15c0-24.814 20.186-46 45-46h60 30c41.353 0 75-33.647 75-75v-12.347c-11.309-3.374-21.42-6.454-30-11.125z" fill="#474f54"/><path d="m361 376v-12.347c-11.309-3.375-21.42-6.454-30-11.125v23.472c0 24.814-20.186 45-45 45h-30v30h30c41.353 0 75-33.647 75-75z" fill="#32393f"/><g><path d="m361 151h-105-105v75c0 57.99 47.01 105 105 105s105-47.01 105-105l30-30z" fill="#c86e59"/><path d="m361 226 30-30-30-45h-105v180c57.99 0 105-47.01 105-105z" fill="#a34f3e"/><path d="m421 181-28.594 30-31.406-30-30-24.375v-81.156l30-30.469c33.137 0 60 26.863 60 60z" fill="#8cd96b"/><path d="m256 0c-74.7 0-135 60.3-135 135v31c0 8.399 6.599 15 15 15h120 105v-136c-24.6-30.901-62.401-45-105-45z" fill="#8cd96b"/><path d="m361 45c-24.6-30.901-62.401-45-105-45v181h105z" fill="#5ab267"/><path d="m361 361v60c0 16.567 13.431 30 30 30s30-13.433 30-30v-60z" fill="#8cd96b"/><path d="m361 301v60c0 16.567 13.431 30 30 30s30-13.433 30-30v-60z" fill="#5ab267"/><path d="m361 241v60c0 16.567 13.431 30 30 30s30-13.433 30-30v-60z" fill="#8cd96b"/><path d="m361 181v60c0 16.567 13.431 30 30 30s30-13.433 30-30v-60z" fill="#5ab267"/></g></svg>