<svg id="Capa_1" enable-background="new 0 0 512 512" height="512" viewBox="0 0 512 512" width="512" xmlns="http://www.w3.org/2000/svg"><g><path d="m373.437 364.666c-20.279-4.995-37.771-9.829-49.937-17.666l-67.5 72.041-67.5-72.041c-12.166 7.837-29.658 12.671-49.937 17.666-67.283 16.555-107.563 40.272-107.563 132.334 0 8.291 6.709 15 15 15h45 165 165 45c8.291 0 15-6.709 15-15 0-89.291-38.042-115.228-107.563-132.334z" fill="#f2f2fc"/><path d="m466 512c8.291 0 15-6.709 15-15 0-89.291-38.042-115.228-107.563-132.334-20.279-4.995-37.771-9.829-49.937-17.666l-67.5 72.041v92.959h165z" fill="#e2d9fb"/><path d="m301 308.665h-45-45c-3.186 18.847-10.677 30.406-22.5 38.335l67.5 41.968 67.5-41.968c-11.823-7.928-19.314-19.488-22.5-38.335z" fill="#ffccb3"/><path d="m301 308.665h-45v80.303l67.5-41.968c-11.823-7.928-19.314-19.488-22.5-38.335z" fill="#fb9"/><path d="m256 106h-105v120c0 57.891 47.109 106 105 106s105-48.109 105-106v-120z" fill="#fdc"/><path d="m361 226v-120h-105v226c57.891 0 105-48.109 105-106z" fill="#ffccb3"/><path d="m365.644 406.019-42.144-59.019-67.5 41.968-67.5-41.968-42.144 59.019c-2.212 3.311-3.003 7.368-2.227 11.265s3.076 7.324 6.387 9.536l63.882 42.583c7.018 4.653 16.28 2.631 20.801-4.16l20.801-31.202 20.801 31.201c4.521 6.793 13.786 8.809 20.801 4.16l63.882-42.583c3.311-2.212 5.61-5.64 6.387-9.536s-.016-7.954-2.227-11.264z" fill="#474f54"/><path d="m297.602 469.402 63.882-42.583c3.311-2.212 5.61-5.64 6.387-9.536s-.015-7.954-2.227-11.265l-42.144-59.018-67.5 41.968v45.073l20.801 31.201c4.522 6.794 13.785 8.811 20.801 4.16z" fill="#32393f"/><path d="m346 151h-90-90c-8.291 0-15 6.709-15 15 0 33.091 26.909 60 60 60 18.007 0 33.995-8.134 45-20.729 11.005 12.595 26.993 20.729 45 20.729 33.091 0 60-26.909 60-60 0-8.291-6.709-15-15-15z" fill="#474f54"/><path d="m361 166c0-8.291-6.709-15-15-15h-90v54.271c11.005 12.595 26.993 20.729 45 20.729 33.091 0 60-26.909 60-60z" fill="#32393f"/><path d="m286 0c-3.984 0-7.793 1.582-10.605 4.395l-8.789 8.789c-2.93 2.93-6.768 4.395-10.605 4.395s-7.676-1.465-10.605-4.395l-8.789-8.789c-2.814-2.813-6.623-4.395-10.607-4.395-41.353 0-75 34.647-75 76v30h105 105v-30c0-41.353-33.647-76-75-76z" fill="#f2f2fc"/><path d="m361 76c0-41.353-33.647-76-75-76-3.984 0-7.793 1.582-10.605 4.395l-8.789 8.789c-2.93 2.93-6.768 4.395-10.605 4.395v88.421h105v-30z" fill="#e2d9fb"/><path d="m406 91h-150-150c-8.291 0-15 6.709-15 15s6.709 15 15 15h150 150c8.291 0 15-6.709 15-15s-6.709-15-15-15z" fill="#474f54"/><path d="m421 106c0-8.291-6.709-15-15-15h-150v30h150c8.291 0 15-6.709 15-15z" fill="#32393f"/></g></svg>