<svg id="Capa_1" enable-background="new 0 0 512 512" height="512" viewBox="0 0 512 512" width="512" xmlns="http://www.w3.org/2000/svg"><g><path d="m256 0c-90.981 0-165 75.019-165 166 0 92.476 30.293 154.131 31.582 156.709 2.549 5.083 7.734 8.291 13.418 8.291h120 120c5.684 0 10.869-3.208 13.418-8.291 1.289-2.578 31.582-64.233 31.582-156.709 0-90.981-74.019-166-165-166z" fill="#474f54"/><path d="m389.418 322.709c1.289-2.578 31.582-64.233 31.582-156.709 0-90.981-74.019-166-165-166v331h120c5.684 0 10.869-3.208 13.418-8.291z" fill="#32393f"/><path d="m440.966 428.158h-184.966-184.966c-6.224 17.085-10.034 39.977-10.034 68.842 0 8.291 6.709 15 15 15h180 180c8.291 0 15-6.709 15-15 0-28.865-3.81-51.757-10.034-68.842z" fill="#474f54"/><path d="m451 497c0-28.865-3.81-51.757-10.034-68.842h-184.966v83.842h180c8.291 0 15-6.709 15-15z" fill="#32393f"/><path d="m426.469 401.104h-170.469-170.469c-5.651 7.28-10.549 16.216-14.496 27.054 60.949 15.576 122.933 23.692 184.965 23.692s124.016-8.115 184.966-23.692c-3.948-10.838-8.846-19.774-14.497-27.054z" fill="#f2f2fc"/><path d="m426.469 401.104h-170.469v50.746c62.032 0 124.016-8.115 184.966-23.692-3.948-10.838-8.846-19.774-14.497-27.054z" fill="#e2d9fb"/><path d="m361.425 363.783c-30.132-8.994-51.899-15.498-58.77-56.118-1.23-7.222-7.471-12.495-14.795-12.495h-31.86-31.86c-7.324 0-13.564 5.273-14.795 12.495-6.87 40.62-28.638 47.124-58.77 56.118-22.053 6.59-47.058 14.143-65.045 37.321 56.217 13.768 113.337 20.739 170.469 20.739s114.252-6.971 170.469-20.739c-17.985-23.178-42.99-30.731-65.043-37.321z" fill="#ffccb3"/><path d="m361.425 363.783c-30.132-8.994-51.899-15.498-58.77-56.118-1.23-7.222-7.471-12.495-14.795-12.495h-31.86v126.672c57.133 0 114.252-6.971 170.469-20.739-17.986-23.177-42.991-30.73-65.044-37.32z" fill="#fb9"/><path d="m343.817 142.27c-4.043-11.558-8.613-24.639-13.462-40.62-2.153-7.104-9.258-11.514-16.553-10.488-7.353 1.083-12.802 7.397-12.802 14.838 0 28.729-20.239 46.368-45 57.305-38.958 17.208-89.191 17.695-90.015 17.695-8.276.015-14.985 6.724-14.985 15v30c0 57.881 46.906 104.854 105 104.952.06 0 .115.018.176.018 60.672 0 104.824-50.235 104.824-108.53 0-31.04-7.207-51.65-17.183-80.17z" fill="#fdc"/><path d="m361 222.44c0-31.04-7.207-51.65-17.183-80.171-4.043-11.558-8.613-24.639-13.462-40.62-2.153-7.104-9.258-11.514-16.553-10.488-7.353 1.084-12.802 7.398-12.802 14.839 0 28.729-20.239 46.368-45 57.305v167.648c.06 0 .115.018.176.018 60.672 0 104.824-50.235 104.824-108.531z" fill="#ffccb3"/></g></svg>