<svg id="Capa_1" enable-background="new 0 0 512 512" height="512" viewBox="0 0 512 512" width="512" xmlns="http://www.w3.org/2000/svg"><g><path d="m439.516 226c7.134-7.969 11.484-18.486 11.484-30 0-19.731-12.773-36.548-30.469-42.598-6.46-85.122-77.783-153.402-164.531-153.402s-158.071 68.28-164.531 153.402c-17.696 6.05-30.469 22.867-30.469 42.598 0 11.514 4.351 22.031 11.484 30-7.133 7.969-11.484 18.486-11.484 30s4.351 22.031 11.484 30c-7.133 7.969-11.484 18.486-11.484 30s4.351 22.031 11.484 30c-7.133 7.969-11.484 18.486-11.484 30 0 22.266 15.952 40.972 40.283 44.634l154.717-.095 157.061-.095c21.987-3.472 37.939-22.178 37.939-44.444 0-11.514-4.351-22.031-11.484-30 7.134-7.969 11.484-18.486 11.484-30s-4.351-22.031-11.484-30c7.134-7.969 11.484-18.486 11.484-30s-4.351-22.031-11.484-30z" fill="#ff8fb8"/><path d="m451 376c0-11.514-4.351-22.031-11.484-30 7.134-7.969 11.484-18.486 11.484-30s-4.351-22.031-11.484-30c7.134-7.969 11.484-18.486 11.484-30s-4.351-22.031-11.484-30c7.134-7.969 11.484-18.486 11.484-30 0-19.731-12.773-36.548-30.469-42.598-6.46-85.122-77.783-153.402-164.531-153.402v420.539l157.061-.095c21.987-3.472 37.939-22.178 37.939-44.444z" fill="#ff5f96"/><g><path d="m361 363.653-12.449 25.384-17.551-36.509c-14.112-7.683-24.093-19.726-28.345-44.863h-46.655-46.655c-4.252 25.137-14.233 37.18-28.345 44.863l-15.749 35.841-14.251-24.716c-56.398 16.842-90 41.862-90 133.347 0 8.291 6.709 15 15 15h45l30-30h105 105l30 30h45c8.291 0 15-6.709 15-15 0-91.983-34.162-116.671-90-133.347z" fill="#f2f2fc"/><path d="m391 512h45c8.291 0 15-6.709 15-15 0-91.983-34.162-116.671-90-133.347l-12.449 25.384-17.551-36.509c-14.112-7.683-24.093-19.726-28.345-44.863h-46.655v174.335h105z" fill="#e2d9fb"/><path d="m151 363.653v87.347h30v-98.472c-8.58 4.671-18.691 7.751-30 11.125z" fill="#474f54"/><path d="m331 352.528v98.472h30v-87.347c-11.309-3.374-21.42-6.454-30-11.125z" fill="#32393f"/><path d="m316 421c-24.65 0-46.328 12.05-60 30.41-13.672-18.36-35.35-30.41-60-30.41-41.422 0-75 34.578-75 76v15h135 135v-15c0-41.422-33.578-76-75-76z" fill="#474f54"/><path d="m391 497c0-41.422-33.578-76-75-76-24.65 0-46.328 12.05-60 30.41v60.59h135z" fill="#32393f"/></g><path d="m316 151c-24.6 0-46.199-11.7-60-30-13.801 18.3-35.4 30-60 30-24.853 0-45 20.147-45 45v30c0 57.99 47.01 105 105 105s105-47.01 105-105v-30c0-24.853-20.147-45-45-45z" fill="#fcc"/><path d="m361 226v-30c0-24.853-20.147-45-45-45-24.6 0-46.199-11.7-60-30v210c57.99 0 105-47.01 105-105z" fill="#ffb3b3"/></g></svg>