<svg id="Capa_1" enable-background="new 0 0 512 512" height="512" viewBox="0 0 512 512" width="512" xmlns="http://www.w3.org/2000/svg"><path d="m149.315 361.921c-3.497.912-6.985 1.816-10.752 2.745-47.929 11.792-107.563 26.484-107.563 132.334 0 8.291 6.709 15 15 15h210z" fill="#f2f2fc"/><path d="m373.437 364.666c-3.766-.928-7.255-1.833-10.752-2.745l-106.685 150.079h210c8.291 0 15-6.709 15-15 0-105.85-59.634-120.542-107.563-132.334z" fill="#e2d9fb"/><path d="m362.685 361.921c-16.948-4.418-30.665-9.109-40.959-16.729l-65.726 90.49-65.726-90.489c-10.294 7.619-24.011 12.31-40.959 16.729-9.565 17.02-12.211 40.096-7.178 59.068 5.522 20.771 19.717 38.203 37.852 47.212l68.203 41.602c1.463.895 5.277 2.197 7.808 2.197s6.345-1.302 7.808-2.197l68.203-41.602c18.135-9.009 32.329-26.44 37.852-47.212 5.033-18.972 2.387-42.049-7.178-59.069z" fill="#80bfff"/><path d="m332.011 468.201c18.135-9.009 32.329-26.44 37.852-47.212 5.034-18.972 2.388-42.048-7.178-59.068-16.948-4.418-30.665-9.109-40.959-16.729l-65.726 90.49v76.318c2.531 0 6.345-1.302 7.808-2.197z" fill="#4895ff"/><path d="m301 308.665h-45-45c-2.99 17.69-10.109 28.671-20.726 36.528l65.726 120.489 65.726-120.489c-10.617-7.857-17.736-18.838-20.726-36.528z" fill="#a34f3e"/><path d="m301 308.665h-45v157.017l65.726-120.489c-10.617-7.857-17.736-18.838-20.726-36.528z" fill="#873f2e"/><g><path d="m256 0c-90.981 0-165 60.557-165 135s74.019 136 165 136 165-61.557 165-136-74.019-135-165-135z" fill="#474f54"/><path d="m421 135c0-74.443-74.019-135-165-135v271c90.981 0 165-61.557 165-136z" fill="#32393f"/><path d="m256 60c-57.891 0-105 48.109-105 106v60c0 30.703 13.486 58.11 34.568 77.327l27.014-39.036c2.549-5.083 7.734-8.291 13.418-8.291h30 30c5.684 0 10.869 3.208 13.418 8.291l27.014 39.036c21.082-19.217 34.568-46.624 34.568-77.327v-60c0-57.891-47.109-106-105-106z" fill="#c86e59"/><path d="m299.418 264.291 27.014 39.036c21.082-19.217 34.568-46.624 34.568-77.327v-60c0-57.891-47.109-106-105-106v196h30c5.684 0 10.869 3.208 13.418 8.291z" fill="#a34f3e"/><path d="m291.728 256h-35.728-35.728l-9.631 64.272c13.786 6.667 29.048 10.728 45.359 10.728s31.573-4.061 45.359-10.728z" fill="#c86e59"/><path d="m291.728 256h-35.728v75c16.311 0 31.573-4.061 45.359-10.728z" fill="#a34f3e"/><path d="m299.418 249.291c-2.549-5.083-7.734-8.291-13.418-8.291h-30-30c-5.684 0-10.869 3.208-13.418 8.291l-27.014 54.036c7.469 6.808 15.879 12.499 25.073 16.945l24.631-49.272h20.728 20.728l24.631 49.272c9.194-4.446 17.604-10.137 25.073-16.945z" fill="#474f54"/><path d="m301.359 320.272c9.194-4.446 17.604-10.137 25.073-16.945l-27.014-54.036c-2.549-5.083-7.734-8.291-13.418-8.291h-30v30h20.728z" fill="#32393f"/></g></svg>