<svg id="Capa_1" enable-background="new 0 0 512 512" height="512" viewBox="0 0 512 512" width="512" xmlns="http://www.w3.org/2000/svg"><g><g><path d="m125.395 236.605c-5.859-5.859-5.859-15.352 0-21.211l30-30c5.859-5.859 15.352-5.859 21.211 0s5.859 15.352 0 21.211l-30 30c-5.86 5.86-15.352 5.86-21.211 0z" fill="#ffb64c"/></g><path d="m256 106.985-32.681-13.7-72.319 67.335v65.38c0 57.99 47.01 105 105 105 54.521 0 105-44.734 105-105v-75z" fill="#fcc"/><path d="m361 226v-75l-105-44.015v224.015c54.521 0 105-44.734 105-105z" fill="#ffb3b3"/><path d="m286 0c-10.362 0-20.334 1.392-30 3.591-60.388 13.736-105 68.688-105 132.409v24.62l72.319-37.335 32.681 27.237 140.405 117.014c4.506 3.726 10.717 4.508 15.952 2.043 5.274-2.461 8.643-7.764 8.643-13.579v-120c0-74.443-60.557-136-135-136z" fill="#c86e59"/><path d="m412.357 269.579c5.274-2.461 8.643-7.764 8.643-13.579v-120c0-74.443-60.557-136-135-136-10.362 0-20.334 1.392-30 3.591v146.931l140.405 117.014c4.506 3.726 10.717 4.508 15.952 2.043z" fill="#a34f3e"/></g><path d="m389.978 373.682-133.978-.002-133.969-.002c-31.692 13.81-61.031 42.276-61.031 123.322 0 8.291 6.709 15 15 15h180 180c8.291 0 15-6.709 15-15 0-81.039-29.335-109.505-61.022-123.318z" fill="#474f54"/><path d="m451 497c0-81.039-29.335-109.505-61.022-123.318l-133.978-.002v138.32h180c8.291 0 15-6.709 15-15z" fill="#32393f"/><path d="m361.425 363.783c-15.555-4.644-28.815-8.714-39.014-17.065l-66.411 14.277-66.409-14.279c-10.199 8.351-23.461 12.424-39.016 17.067-9.24 2.761-18.995 5.733-28.544 9.895l87.314 58.206c9.412 6.312 21.253 6.583 30.791 1.523 9.785-5.215 15.864-15.366 15.864-26.47 0 11.104 6.079 21.255 15.864 26.455 9.558 5.101 21.418 4.772 30.776-1.494l87.338-58.217c-9.552-4.163-19.31-7.137-28.553-9.898z" fill="#f2f2fc"/><path d="m271.864 433.393c9.558 5.101 21.418 4.772 30.776-1.494l87.338-58.217c-9.553-4.164-19.31-7.137-28.553-9.899-15.555-4.644-28.815-8.714-39.014-17.065l-66.411 14.277v45.943c0 11.103 6.079 21.254 15.864 26.455z" fill="#e2d9fb"/><path d="m302.655 307.665h-46.655-46.655c-3.323 19.651-10.197 31.223-19.753 39.051l66.408 44.279 66.411-44.277c-9.559-7.826-16.432-19.4-19.756-39.053z" fill="#ffb3b3"/><path d="m302.655 307.665h-46.655v83.329l66.411-44.277c-9.559-7.825-16.432-19.399-19.756-39.052z" fill="#f99"/></svg>