<svg id="Capa_1" enable-background="new 0 0 512 512" height="512" viewBox="0 0 512 512" width="512" xmlns="http://www.w3.org/2000/svg"><g><path d="m431.4 409.26-104.119 43.416-71.28 59.324h180c8.291 0 15-6.709 15-15 0-41.6-7.793-68.961-19.601-87.74z" fill="#884dff"/><path d="m80.608 409.252c-11.81 18.781-19.607 46.143-19.607 87.748 0 8.291 6.709 15 15 15h180l-72.978-72.751z" fill="#aa80ff"/><path d="m410.755 386.662c-18.658-14.064-40.441-18.924-59.654-25.032h-95.099-95.099c-20.072 6.381-41.01 10.981-59.647 25.025-7.625 5.744-14.648 13.061-20.647 22.597l167.673 100.609c2.373 1.421 5.054 2.139 7.72 2.139s5.347-.718 7.72-2.139l167.678-100.601c-5.997-9.538-13.021-16.852-20.645-22.598z" fill="#ffccb3"/><path d="m431.4 409.26c-5.997-9.538-13.021-16.851-20.645-22.597-18.658-14.064-40.441-18.924-59.654-25.032h-95.099v150.369c2.666 0 5.347-.718 7.72-2.139z" fill="#fb9"/><path d="m256.001 392c-8.291 0-15 6.709-15 15v30c0 8.291 6.709 15 15 15s15-6.709 15-15v-30c0-8.291-6.709-15-15-15z" fill="#ffb64c"/><path d="m271.001 437v-30c0-8.291-6.709-15-15-15v60c8.291 0 15-6.709 15-15z" fill="#ff9100"/><path d="m320.551 345.938-64.55 13.03-64.55-13.03c-8.176 7.46-18.455 11.849-30.549 15.692l86.779 57.85c2.52 1.685 5.42 2.52 8.32 2.52s5.801-.835 8.32-2.52l86.779-57.85c-12.093-3.843-22.373-8.232-30.549-15.692z" fill="#ffb64c"/><path d="m351.101 361.63c-12.094-3.843-22.374-8.232-30.549-15.692l-64.55 13.03v63.032c2.9 0 5.801-.835 8.32-2.52z" fill="#ff9100"/><path d="m441.269 303.062c-49.739-18.754-80.268-54.591-80.268-107.062h-105-105c0 73.506-61.04 100.536-79.746 106.762-6.973 2.329-11.235 9.375-10.063 16.641 1.186 7.265 7.456 12.597 14.809 12.597h150 30 180c5.739 0 13.255-4.385 14.537-12.702 1.282-8.031-3.215-13.954-9.269-16.236z" fill="#ffb64c"/><path d="m450.538 319.298c1.282-8.031-3.215-13.954-9.269-16.236-49.739-18.754-80.268-54.591-80.268-107.062h-105v136h180c5.739 0 13.255-4.385 14.537-12.702z" fill="#ff9100"/><path d="m302.657 308.665h-46.655-46.655c-3.094 18.301-9.349 29.474-17.895 37.273l64.55 43.03 64.55-43.03c-8.546-7.798-14.801-18.972-17.895-37.273z" fill="#ffccb3"/><path d="m302.657 308.665h-46.655v80.303l64.55-43.03c-8.546-7.798-14.801-18.972-17.895-37.273z" fill="#fb9"/><path d="m256.001 111.488-27.671-16.606-60.37 60.37-16.959 46.959v23.789c0 57.891 47.109 106 105 106s105-48.109 105-106v-51.504z" fill="#fdc"/><path d="m361.001 226v-51.504l-105-63.008v220.512c57.891 0 105-48.109 105-106z" fill="#ffccb3"/><path d="m271.001 0c-5.136 0-10.032.886-15 1.516-59.033 7.478-105 58.453-105 119.484v81.211l77.329-77.329 27.671 16.604 112.288 67.377c15.007 4.926 22.712-2.208 22.712-12.863v-75c0-66.167-53.833-121-120-121z" fill="#ffb64c"/><path d="m391.001 196v-75c0-66.167-53.833-121-120-121-5.136 0-10.032.886-15 1.516v139.97l112.288 67.377c15.007 4.926 22.712-2.208 22.712-12.863z" fill="#ff9100"/></g></svg>