<svg id="Capa_1" enable-background="new 0 0 512.005 512.005" height="512" viewBox="0 0 512.005 512.005" width="512" xmlns="http://www.w3.org/2000/svg"><g><path d="m390.003 374.918-14.762 9.651c-3.611 21.233-21.976 37.434-44.238 37.434h-75-105v-57.347c-.146.044-.278.086-.425.13-57.028 17.029-89.575 42.015-89.575 132.217 0 8.291 6.709 15 15 15h180 180c8.291 0 15-6.709 15-15 0-80.617-29.504-108.206-61-122.085z" fill="#f2f2fc"/><path d="m451.003 497.004c0-80.618-29.504-108.206-61-122.086l-14.762 9.651c-3.611 21.233-21.976 37.434-44.238 37.434h-75v90h180c8.291.001 15-6.708 15-14.999z" fill="#e2d9fb"/><path d="m361.003 356.608-58.345-47.939h-46.655-46.655c-6.837 40.422-28.44 47.062-58.345 55.988v57.347h105 75c22.262 0 40.627-16.201 44.238-37.434z" fill="#ffb3b3"/><path d="m375.241 384.57-14.238-27.962-58.345-47.939h-46.655v113.335h75c22.262 0 40.627-16.202 44.238-37.434z" fill="#f99"/><path d="m375.904 369.299-14.901-12.691.037 26.431c-2.959 22.207-22.566 38.965-45.037 38.965h-60-71.851c-8.291 0-15 6.709-15 15s6.709 15 15 15h71.851 60c37.441 0 68.932-27.949 74-66.987v-10.098c-4.836-2.132-9.243-3.996-14.099-5.62z" fill="#474f54"/><path d="m390.003 385.016v-10.098c-4.836-2.131-9.243-3.995-14.099-5.62l-14.901-12.691.037 26.431c-2.959 22.207-22.566 38.965-45.037 38.965h-60v30h60c37.441.001 68.931-27.949 74-66.987z" fill="#32393f"/><path d="m417.414 149.154c-3.999-83.516-74.823-149.004-161.411-149.15-.009 0-.02-.004-.029-.004-86.632.132-157.53 65.76-161.368 148.905-1.509 18.765.732 41.869 6.079 61.308l22.573 91.381c5.316 21.731 9.93 44.31 12.27 67.89 3.765 37.95 1.555 78.532-13.705 122.613-1.86 5.405-.498 11.396 3.516 15.454 4.071 4.134 10.134 5.469 15.41 3.677 4.087-1.362 70.254-35.244 70.254-194.224v-8.335h45 46.655c6.87 40.62 28.638 47.124 58.77 56.118 4.72 1.41 9.582 2.875 14.476 4.512 1.761-26.237 6.553-42.1 12.843-67.705 4.951-20.288 9.258-37.134 12.905-51.431 12.73-49.819 18.018-72.532 15.762-101.009z" fill="#8cd96b"/><path d="m361.427 364.787c4.72 1.41 9.582 2.875 14.476 4.512 1.761-26.237 6.553-42.1 12.843-67.705 4.951-20.288 9.258-37.134 12.905-51.431 12.729-49.819 18.018-72.532 15.762-101.009-3.998-83.516-74.822-149.004-161.41-149.15v308.665h46.655c6.87 40.62 28.638 47.124 58.769 56.118z" fill="#5ab267"/><path d="m316.178 90.472c-19.614-6.189-40.86-3.734-60.176 10.239-7.978-5.771-16.111-10.021-27.158-12.158-9.188-1.776-17.842 5.25-17.842 14.722v208.587c0 6.357 3.999 12.012 9.99 14.136 11.197 3.977 23.036 5.978 35.01 5.986.024 0 .049.005.073.005 61.133 0 104.927-50.616 104.927-108.545v-74.217c-.204-27.202-17.797-50.258-44.824-58.755z" fill="#fcc"/><path d="m361.003 223.444v-74.217c-.205-27.202-17.798-50.259-44.824-58.755-19.614-6.189-40.86-3.734-60.176 10.239v231.272c.024 0 .049.005.073.005 61.133.001 104.927-50.615 104.927-108.544z" fill="#ffb3b3"/></g></svg>