<svg id="Capa_1" enable-background="new 0 0 512 512" height="512" viewBox="0 0 512 512" width="512" xmlns="http://www.w3.org/2000/svg"><g><path d="m391 368.178c-5.938-1.642-11.838-3.104-17.563-4.512-17.333-4.27-31.339-8.221-42.437-14.134l-30 26.468h-45-45l-30-26.468c-11.098 5.912-25.104 9.864-42.437 14.134-5.726 1.408-11.625 2.869-17.563 4.512l-15 26.104v92.875l15 24.843h135 135l15-21.563v-91.937z" fill="#474f54"/><path d="m406 490.438v-91.938l-15-30.322c-5.938-1.642-11.838-3.104-17.563-4.512-17.333-4.27-31.339-8.221-42.437-14.134l-30 26.468h-45v136h135z" fill="#32393f"/><path d="m31 497c0 8.291 6.709 15 15 15h75v-143.822c-43.77 12.103-90 35.619-90 128.822z" fill="#ffccb3"/><path d="m391 368.178v143.822h75c8.291 0 15-6.709 15-15 0-93.203-46.23-116.719-90-128.822z" fill="#fb9"/><path d="m301 307.665h-45-45c-7.381 16.723-7.859 30.073-30 41.867v26.468c0 41.353 33.647 75 75 75s75-33.647 75-75v-26.468c-23.342-12.435-24.571-29.566-30-41.867z" fill="#ffccb3"/><path d="m331 376v-26.468c-23.342-12.435-24.571-29.566-30-41.867h-45v143.335c41.353 0 75-33.647 75-75z" fill="#fb9"/><path d="m286 0h-30-30c-41.353 0-75 33.647-75 75v45l26.719 15h78.281 105v-60c0-41.353-33.647-75-75-75z" fill="#f66"/><path d="m361 75c0-41.353-33.647-75-75-75h-30v135h105z" fill="#e62e2e"/><path d="m376 240h-45v-105h25.781l19.219 15c24.853 0 45 20.147 45 45 0 24.853-20.147 45-45 45z" fill="#fb9"/><path d="m181 240h-45c-24.853 0-45-20.147-45-45 0-24.853 20.147-45 45-45h45z" fill="#ffccb3"/><path d="m335.219 135h-79.219-80.156l-24.844 15v75c0 57.99 47.01 106 105 106s105-48.01 105-106v-75z" fill="#fdc"/><path d="m361 225v-75l-25.781-15h-79.219v196c57.99 0 105-48.01 105-106z" fill="#ffccb3"/><path d="m286 60h-30-30c-8.291 0-15 6.709-15 15v60h45 45v-60c0-8.291-6.709-15-15-15z" fill="#474f54"/><path d="m301 75c0-8.291-6.709-15-15-15h-30v75h45z" fill="#32393f"/><path d="m436 120h-180-105v30h105 180c8.284 0 15-6.716 15-15 0-8.286-6.716-15-15-15z" fill="#f66"/><path d="m451 135c0-8.286-6.716-15-15-15h-180v30h180c8.284 0 15-6.716 15-15z" fill="#e62e2e"/></g></svg>