<svg id="Capa_1" enable-background="new 0 0 512 512" height="512" viewBox="0 0 512 512" width="512" xmlns="http://www.w3.org/2000/svg"><g><path d="m361 363.648c-11.693-3.492-22.073-6.711-30.84-11.66l-74.16-.11-73.819-.11c-8.839 5.067-19.33 8.34-31.181 11.88l-15 27.352v90l15 31h105 105l15-31v-90z" fill="#e2d9fb"/><path d="m376 481v-90l-15-27.352c-11.693-3.492-22.073-6.711-30.84-11.66l-74.16-.11v160.122h105z" fill="#c7c1dc"/><path d="m286 421h-15v-45c0-8.291-6.709-15-15-15s-15 6.709-15 15v45h-15c-8.291 0-15 6.709-15 15s6.709 15 15 15h15v15c0 8.291 6.709 15 15 15s15-6.709 15-15v-15h15c8.291 0 15-6.709 15-15s-6.709-15-15-15z" fill="#474f54"/><path d="m271 466v-15h15c8.291 0 15-6.709 15-15s-6.709-15-15-15h-15v-45c0-8.291-6.709-15-15-15v120c8.291 0 15-6.709 15-15z" fill="#32393f"/><path d="m308.711 328.039-52.711.139-52.828.141c-5.026 11.171-12.114 18.36-20.991 23.448 16.827 24.451 43.942 39.233 73.819 39.233 30.421 0 57.665-14.934 74.16-39.012-9.114-5.146-16.352-12.47-21.449-23.949z" fill="#474f54"/><path d="m330.16 351.988c-9.113-5.145-16.351-12.469-21.449-23.948l-52.711.138v62.822c30.421 0 57.665-14.934 74.16-39.012z" fill="#32393f"/><path d="m302.655 307.665h-46.655-46.655c-1.404 8.304-3.58 14.888-6.172 20.654 11.581 22.226 31.607 32.681 52.827 32.681 22.861 0 42.435-13.11 52.711-32.961-2.536-5.709-4.673-12.2-6.056-20.374z" fill="#f2f2fc"/><path d="m308.711 328.039c-2.536-5.709-4.673-12.2-6.055-20.374h-46.656v53.335c22.861 0 42.435-13.11 52.711-32.961z" fill="#e2d9fb"/><path d="m256 0c-90.981 0-165 75.019-165 166v90c0 8.291 6.709 15 15 15h150 150c8.291 0 15-6.709 15-15v-90c0-90.981-74.019-166-165-166z" fill="#aa80ff"/><path d="m421 256v-90c0-90.981-74.019-166-165-166v271h150c8.291 0 15-6.709 15-15z" fill="#884dff"/><path d="m346 181h-30c-8.401 0-15-6.601-15-15 0-30.72-18.541-57.07-45-68.661-9.199-4.03-19.319-6.339-30-6.339-41.4 0-75 33.6-75 75v60c0 57.9 47.1 105 105 105s105-47.1 105-105v-30c0-8.401-6.599-15-15-15z" fill="#fdc"/><path d="m361 226v-30c0-8.401-6.599-15-15-15h-30c-8.401 0-15-6.601-15-15 0-30.72-18.541-57.07-45-68.661v233.661c57.9 0 105-47.1 105-105z" fill="#ffccb3"/><path d="m150.575 363.783c-39.902 11.924-89.575 27.748-89.575 133.217 0 8.291 6.709 15 15 15h75v-148.352c-.15.045-.275.089-.425.135z" fill="#474f54"/><path d="m361.425 363.783c-.15-.046-.275-.092-.425-.135v148.352h75c8.291 0 15-6.709 15-15 0-105.469-49.673-121.293-89.575-133.217z" fill="#32393f"/></g></svg>