<svg id="Capa_1" enable-background="new 0 0 512 512" height="512" viewBox="0 0 512 512" width="512" xmlns="http://www.w3.org/2000/svg"><g><path d="m256 0h-30c-43.667 0-84.844 21.27-110.142 56.909-16.259 22.91-24.858 49.907-24.858 78.091v60c0 19.351-18.501 42.231-25.62 49.409-4.541 4.57-5.669 11.543-2.798 17.3 1.743 3.472 35.947 68.232 163.257 68.232 7.033 0 14.54-.335 22.152-.751l8.009-11.636 105-152.554v-60c0-57.891-47.109-105-105-105z" fill="#a34f3e"/><path d="m361 105c0-57.891-47.109-105-105-105v317.554l105-152.554z" fill="#873f2e"/><path d="m440.966 428.158h-184.966-184.966c-6.224 17.085-10.034 39.977-10.034 68.842 0 8.291 6.709 15 15 15h180 180c8.291 0 15-6.709 15-15 0-28.865-3.81-51.757-10.034-68.842z" fill="#ffb64c"/><path d="m451 497c0-28.865-3.81-51.757-10.034-68.842h-184.966v83.842h180c8.291 0 15-6.709 15-15z" fill="#ff9100"/><path d="m426.469 401.104h-170.469-170.469c-5.651 7.28-10.549 16.216-14.496 27.054 60.949 15.576 122.933 23.692 184.965 23.692s124.016-8.115 184.966-23.692c-3.948-10.838-8.846-19.774-14.497-27.054z" fill="#f2f2fc"/><path d="m426.469 401.104h-170.469v50.746c62.032 0 124.016-8.115 184.966-23.692-3.948-10.838-8.846-19.774-14.497-27.054z" fill="#e2d9fb"/><path d="m361.425 362.783c-30.132-8.994-51.899-15.498-58.77-56.118-1.23-7.222-7.471-12.495-14.795-12.495h-31.86-31.86c-7.324 0-13.564 5.273-14.795 12.495-6.87 40.62-28.638 47.124-58.77 56.118-22.053 6.59-47.058 15.143-65.045 38.321 56.217 13.768 113.337 20.739 170.469 20.739s114.252-6.971 170.469-20.739c-17.985-23.178-42.99-31.731-65.043-38.321z" fill="#ffb3b3"/><path d="m361.425 362.783c-30.132-8.994-51.899-15.498-58.77-56.118-1.23-7.222-7.471-12.495-14.795-12.495h-31.86v127.672c57.133 0 114.252-6.971 170.469-20.739-17.986-23.177-42.991-31.73-65.044-38.32z" fill="#f99"/><g><path d="m365.395 235.605-30-30c-5.859-5.859-5.859-15.352 0-21.211s15.352-5.859 21.211 0l30 30c5.859 5.859 5.859 15.352 0 21.211-5.86 5.86-15.352 5.86-21.211 0z" fill="#ff9100"/></g><path d="m256 60c-8.291 0-15 6.709-15 15 0 17.813-20.991 41.865-41.309 65.142-23.935 27.436-48.691 55.81-48.691 84.858 0 55.148 42.894 100.016 96.991 104.191 2.69.207 5.266.809 8.009.809 54.739 0 105-45.057 105-105v-60c0-57.891-47.109-105-105-105z" fill="#fcc"/><path d="m361 225v-60c0-57.891-47.109-105-105-105v270c54.739 0 105-45.057 105-105z" fill="#ffb3b3"/></g></svg>