<svg id="Capa_1" enable-background="new 0 0 511.989 511.989" height="512" viewBox="0 0 511.989 511.989" width="512" xmlns="http://www.w3.org/2000/svg"><g><path d="m356.53 359.244c-18.735-5.208-33.054-11.245-42.704-22.381l-57.832.057-57.924.059c-9.65 11.065-23.943 17.076-42.62 22.267l-14.921 89.583 40.464 63.161h75 75l40.345-62.479z" fill="#ffb64c"/><path d="m371.34 449.51-14.81-90.266c-18.735-5.208-33.054-11.245-42.704-22.381l-57.832.057v175.069h75z" fill="#ff9100"/><path d="m300.995 307.654h-45-45c-2.183 12.903-6.643 22.121-12.924 29.324 14.987 14.899 35.37 24.011 57.924 24.011 22.463 0 42.825-9.229 57.832-24.126-6.228-7.189-10.663-16.371-12.832-29.209z" fill="#a34f3e"/><path d="m300.995 307.654h-45v53.335c22.463 0 42.825-9.229 57.832-24.126-6.228-7.189-10.663-16.371-12.832-29.209z" fill="#873f2e"/><path d="m292.703 1.571c-7.427-3.662-16.406-.718-20.127 6.709l-16.582 33.164-16.582-33.164c-3.706-7.427-12.715-10.371-20.127-6.709-7.412 3.706-10.415 12.715-6.709 20.127l30 60c2.549 5.083 7.734 8.291 13.418 8.291s10.869-3.208 13.418-8.291l30-60c3.707-7.412.704-16.421-6.709-20.127z" fill="#474f54"/><path d="m269.412 81.698 30-60c3.706-7.412.703-16.421-6.709-20.127-7.427-3.662-16.406-.718-20.127 6.709l-16.582 33.164v48.545c5.684 0 10.87-3.208 13.418-8.291z" fill="#32393f"/><path d="m155.451 359.246c-5.321 1.479-10.88 2.928-16.893 4.409-47.93 11.792-107.563 27.484-107.563 133.334 0 8.291 6.709 15 15 15h135v-15c0-69.131-18.406-120.705-25.544-137.743z" fill="#474f54"/><path d="m373.431 363.655c-6.015-1.481-11.578-2.932-16.901-4.411-7.139 17.025-25.536 68.504-25.536 137.745v15h135c8.291 0 15-6.709 15-15 .001-105.85-59.633-121.542-107.563-133.334z" fill="#32393f"/><path d="m350.64 120.317h-94.645-94.645c-6.454 13.607-10.355 28.64-10.355 44.672v61c0 57.891 47.109 105 105 105s105-47.109 105-105v-61c0-16.033-3.901-31.066-10.355-44.672z" fill="#c86e59"/><path d="m360.995 225.989v-61c0-16.033-3.9-31.066-10.355-44.672h-94.645v210.672c57.89 0 105-47.109 105-105z" fill="#a34f3e"/><path d="m255.995 59.989c-42.101 0-78.215 25.701-94.645 60.328 26.744 21.141 59.454 32.968 94.645 32.968s67.901-11.827 94.645-32.968c-16.383-34.541-52.401-60.328-94.645-60.328z" fill="#474f54"/><path d="m255.995 59.989v93.296c35.191 0 67.901-11.827 94.645-32.968-16.383-34.541-52.401-60.328-94.645-60.328z" fill="#32393f"/></g></svg>