<svg id="Capa_1" enable-background="new 0 0 512 512" height="512" viewBox="0 0 512 512" width="512" xmlns="http://www.w3.org/2000/svg"><g><path d="m391 368.178c-5.938-1.642-11.838-3.104-17.563-4.512-17.001-4.188-31.099-8.066-42.437-13.788h-75-75c-11.338 5.722-25.435 9.6-42.437 13.788-5.726 1.408-11.625 2.869-17.563 4.512l-15 22.822v91l15 30h135 135l15-30v-91z" fill="#aa80ff"/><path d="m406 482v-91l-15-22.822c-5.938-1.642-11.838-3.104-17.563-4.512-17.001-4.188-31.099-8.066-42.437-13.788h-75v162.122h135z" fill="#884dff"/><path d="m301 307.665-30 23.335h-15-15l-30-23.335c-3.788 22.407-14.094 34.184-30 42.213v86.122c0 8.291 6.709 15 15 15h60 60c8.291 0 15-6.709 15-15v-86.122c-15.906-8.029-26.212-19.806-30-42.213z" fill="#474f54"/><path d="m331 436v-86.122c-15.906-8.029-26.212-19.807-30-42.213l-30 23.335h-15v120h60c8.291 0 15-6.709 15-15z" fill="#32393f"/><path d="m256 307.665h-45v98.335c0 8.284 6.716 15 15 15h30 30c8.284 0 15-6.716 15-15v-98.335z" fill="#ffb3b3"/><path d="m301 307.665h-45v113.335h30c8.284 0 15-6.716 15-15z" fill="#f99"/><path d="m421 165c0-16.245-8.643-30.498-21.577-38.408 1.699-3.105 3.032-6.445 3.97-9.946 3.105-11.616 1.509-23.745-4.497-34.146-8.115-14.048-22.734-22.075-37.881-22.471-.103-3.545-.601-7.09-1.553-10.605-3.106-11.616-10.562-21.314-20.962-27.32-14.063-8.101-30.747-7.778-44.077-.498-7.91-12.949-22.178-21.606-38.423-21.606s-30.513 8.657-38.423 21.592c-13.33-7.222-30-7.617-44.063.513-10.415 6.006-17.871 15.703-20.977 27.319-.952 3.516-1.45 7.061-1.553 10.605-15.146.396-29.766 8.408-37.881 22.456-6.006 10.415-7.603 22.544-4.497 34.16.938 3.501 2.271 6.841 3.97 9.946-12.933 7.911-21.576 22.164-21.576 38.409s8.657 30.513 21.606 38.423c-7.266 13.33-7.617 31.015.498 45.092 11.733 20.288 36.987 28.037 60 17.109h82.896 82.573c6.753 3.633 14.048 5.361 21.255 5.361 15.557 0 30.732-8.071 39.067-22.485 8.115-14.063 7.764-31.747.498-45.077 12.95-7.91 21.607-22.178 21.607-38.423z" fill="#a34f3e"/><path d="m359.828 270.985c15.557 0 30.732-8.071 39.067-22.485 8.115-14.063 7.764-31.747.498-45.077 12.95-7.91 21.607-22.178 21.607-38.423s-8.643-30.498-21.577-38.408c1.699-3.105 3.032-6.445 3.97-9.946 3.105-11.616 1.509-23.745-4.497-34.146-8.115-14.048-22.734-22.075-37.881-22.471-.103-3.545-.601-7.09-1.553-10.605-3.106-11.616-10.562-21.314-20.962-27.32-14.063-8.101-30.747-7.778-44.077-.498-7.91-12.949-22.178-21.606-38.423-21.606v265.624h82.573c6.753 3.633 14.048 5.361 21.255 5.361z" fill="#873f2e"/><path d="m31 497c0 8.291 6.709 15 15 15h75v-143.822c-43.77 12.103-90 35.619-90 128.822z" fill="#f2f2fc"/><path d="m391 368.178v143.822h75c8.291 0 15-6.709 15-15 0-93.203-46.23-116.719-90-128.822z" fill="#e2d9fb"/><path d="m354.32 152.52-45-30c-4.746-3.149-10.84-3.354-15.762-.542-16.318 9.316-26.938 13.975-37.559 13.975s-21.24-4.658-37.559-13.975c-4.951-2.813-11.001-2.607-15.762.542l-45 30c-4.175 2.783-6.68 7.471-6.68 12.48v61c0 57.891 47.109 105 105 105 57.259 0 105-46.593 105-105v-61c.002-5.01-2.503-9.697-6.678-12.48z" fill="#fcc"/><path d="m361 226v-61c0-5.01-2.505-9.697-6.68-12.48l-45-30c-4.746-3.149-10.84-3.354-15.762-.542-16.318 9.316-26.938 13.975-37.559 13.975v195.047c57.26 0 105.001-46.593 105.001-105z" fill="#ffb3b3"/></g></svg>