<svg id="Capa_1" enable-background="new 0 0 512 512" height="512" viewBox="0 0 512 512" width="512" xmlns="http://www.w3.org/2000/svg"><g><path d="m256 0c-91.128 0-165 74.872-165 166v255h165 165v-255c0-91.128-73.872-166-165-166z" fill="#f2f2fc"/><path d="m421 166c0-91.128-73.872-166-165-166v421h165z" fill="#e2d9fb"/><path d="m361.425 363.783c-30.132-8.994-51.899-15.498-58.77-56.118h-31.655-15-15-31.655c-6.87 40.62-28.638 47.124-58.77 56.118-11.294 3.365-22.178 6.742-32.745 11.823l33.17 136.394h90l15-27.691 15 27.691h90l33.149-136.403c-10.568-5.079-21.458-8.456-32.724-11.814z" fill="#575f64"/><path d="m361 512 33.149-136.403c-10.569-5.079-21.458-8.456-32.725-11.814-30.132-8.994-51.899-15.498-58.77-56.118h-31.654-15v176.644l15 27.691z" fill="#474f54"/><path d="m256 307.665h-15v204.335h15 15v-204.335z" fill="#474f54"/><path d="m256 307.665h15v204.335h-15z" fill="#32393f"/><path d="m117.83 375.606c-30.031 14.436-56.83 43.948-56.83 121.394 0 8.291 6.709 15 15 15h75v-15c-.037-25.563-6.799-88.733-33.17-121.394z" fill="#474f54"/><path d="m394.149 375.597c-26.438 32.674-33.149 95.832-33.149 121.403v15h75c8.291 0 15-6.709 15-15 0-77.465-26.81-106.97-56.851-121.403z" fill="#32393f"/><g><path d="m316 121c-24.6 0-46.199-11.7-60-30-13.801 18.3-35.4 30-60 30-24.853 0-45 20.147-45 45v60c0 57.99 47.01 105 105 105s105-47.01 105-105v-60c0-24.853-20.147-45-45-45z" fill="#fdc"/><path d="m361 226v-60c0-24.853-20.147-45-45-45-24.6 0-46.199-11.7-60-30v240c57.99 0 105-47.01 105-105z" fill="#ffccb3"/></g></g></svg>