<svg id="Capa_1" enable-background="new 0 0 512 512" height="512" viewBox="0 0 512 512" width="512" xmlns="http://www.w3.org/2000/svg"><g><path d="m331.425 364.783c-30.132-8.994-51.899-17.498-58.77-58.118h-46.655-46.655c-6.87 40.62-28.638 49.124-58.77 58.118-38.489 11.501-85.93 25.953-89.253 121.595l25.285 5.806 169.393-61.595 94.103-34.219 29.561-25.748c-6.165-2.188-12.31-4.068-18.239-5.839z" fill="#ffb3b3"/><path d="m349.664 370.622c-6.165-2.188-12.31-4.069-18.239-5.839-30.132-8.994-51.899-17.498-58.77-58.118h-46.655v123.924l94.103-34.219z" fill="#f99"/><path d="m384.771 389.77-37.991-6.641-120.78 43.917-164.057 59.656-13.321 25.298h177.378 180c8.291 0 15-6.709 15-15 0-58.991-15.551-89.601-36.229-107.23z" fill="#474f54"/><path d="m421 497c0-58.991-15.551-89.601-36.229-107.23l-37.991-6.641-120.78 43.917v84.954h180c8.291 0 15-6.709 15-15z" fill="#32393f"/><path d="m349.664 370.622-123.664 44.967-194.678 70.789c-.122 3.514-.322 6.885-.322 10.622 0 8.291 6.709 15 15 15h2.622l177.378-64.499 158.771-57.731c-10.798-9.209-22.987-14.848-35.107-19.148z" fill="#f2f2fc"/><path d="m349.664 370.622-123.664 44.967v31.912l158.771-57.731c-10.798-9.209-22.987-14.848-35.107-19.148z" fill="#e2d9fb"/><path d="m417.805 91.194c20.323-19.16 33.195-46.13 33.195-76.194 0-8.291-6.709-15-15-15-57.891 0-105 47.109-105 105 0 41.353 33.647 75 75 75h60c8.291 0 15-6.709 15-15 0-37.31-27.468-68.097-63.195-73.806z" fill="#f66"/><g><path d="m106 270c-24.814 0-45-20.186-45-45s20.186-45 45-45 45 20.186 45 45-20.186 45-45 45z" fill="#ffb64c"/></g><g><path d="m346 270c-24.814 0-45-20.186-45-45s20.186-45 45-45 45 20.186 45 45-20.186 45-45 45z" fill="#ff9100"/></g><circle cx="226" cy="135" fill="#f66" r="135"/><path d="m361 135c0-74.443-60.557-135-135-135v270c74.443 0 135-60.557 135-135z" fill="#e62e2e"/><path d="m226 60c-57.99 0-105 47.01-105 105v60c0 57.99 47.01 105 105 105s105-47.01 105-105v-60c0-57.99-47.01-105-105-105z" fill="#fcc"/><path d="m331 225v-60c0-57.99-47.01-105-105-105v270c57.99 0 105-47.01 105-105z" fill="#ffb3b3"/><path d="m241 60c-5.209 0-10.177.877-15 2.13-25.807 6.707-45 29.989-45 57.87 0 7.354 3.091 14.414 6.372 21.87 7.69 17.549 11.382 29.15-1.978 42.524-4.292 4.292-5.581 10.737-3.252 16.348 2.314 5.61 7.793 9.258 13.857 9.258 10.836 0 20.66-1.236 30-3.016 47.324-9.016 75-39.921 75-86.984.001-33.091-26.908-60-59.999-60z" fill="#ffb64c"/><path d="m301 120c0-33.091-26.909-60-60-60-5.209 0-10.177.877-15 2.13v144.855c47.324-9.017 75-39.921 75-86.985z" fill="#ff9100"/></g></svg>