<svg id="Capa_1" enable-background="new 0 0 512 512" height="512" viewBox="0 0 512 512" width="512" xmlns="http://www.w3.org/2000/svg"><g><path d="m376 371.082-15 19.918-15-30.396h-90-90l-15 30.396-15-20.279c-44.03 16.58-75 42.113-75 126.279 0 8.291 6.709 15 15 15h30l30-9h120 120l30 9h30c8.291 0 15-6.709 15-15 0-80.008-28.066-107.384-75-125.918z" fill="#ffccb3"/><path d="m406 512h30c8.291 0 15-6.709 15-15 0-80.008-28.066-107.384-75-125.918l-15 19.918-15-30.396h-90v142.396h120z" fill="#fb9"/><path d="m166 481v-120.396c-10.497 3.34-20.535 6.553-30 10.117v110.279z" fill="#f2f2fc"/><path d="m376 481v-109.918c-9.304-3.675-19.279-7.066-30-10.477v120.395z" fill="#e2d9fb"/><path d="m256 361c-8.291 0-15 6.709-15 15v30c0 8.291 6.709 15 15 15s15-6.709 15-15v-30c0-8.291-6.709-15-15-15z" fill="#474f54"/><path d="m271 406v-30c0-8.291-6.709-15-15-15v60c8.291 0 15-6.709 15-15z" fill="#32393f"/><path d="m331 421c-41.422 0-75 34.578-75 76 0-41.422-33.578-76-75-76s-75 34.578-75 76v15h150 150v-15c0-41.422-33.578-76-75-76z" fill="#f2f2fc"/><path d="m406 497c0-41.422-33.578-76-75-76s-75 34.578-75 76v15h150z" fill="#e2d9fb"/><path d="m320.178 344.585-64.178.001-64.182.002c-8.212 7.659-13.574 12.122-25.818 16.016 27.48 19.499 55.305 30.396 90 30.396 34.686 0 62.518-10.895 90-30.396-12.244-3.894-17.609-8.358-25.822-16.019z" fill="#474f54"/><path d="m320.178 344.585-64.178.001v46.414c34.686 0 62.518-10.895 90-30.396-12.244-3.894-17.609-8.358-25.822-16.019z" fill="#32393f"/><path d="m302.655 307.665h-46.655-46.655c-3.051 18.034-9.175 29.136-17.527 36.923 19.437 10.558 41.308 16.412 64.182 16.412 22.868 0 44.74-5.856 64.178-16.415-8.349-7.788-14.472-18.888-17.523-36.92z" fill="#ffccb3"/><path d="m302.655 307.665h-46.655v53.335c22.868 0 44.74-5.856 64.178-16.415-8.349-7.788-14.472-18.888-17.523-36.92z" fill="#fb9"/><g><path d="m376 270c-24.814 0-45-20.186-45-45s20.186-45 45-45 45 20.186 45 45-20.186 45-45 45z" fill="#ff9100"/></g><g><path d="m136 270c-24.814 0-45-20.186-45-45s20.186-45 45-45 45 20.186 45 45-20.186 45-45 45z" fill="#ffb64c"/></g><path d="m256.015 102.275-.015.013-105 95.085v27.627c0 57.742 47.704 106 105 106 59.745 0 105-51.094 105-106v-27.656z" fill="#fdc"/><path d="m361 225v-27.656l-104.985-95.068-.015.012v228.712c59.745 0 105-51.094 105-106z" fill="#ffccb3"/><path d="m316 150c-41.421 0-75-33.579-75-75 0-41.421 33.579-75 75-75 41.421 0 75 33.579 75 75 0 41.421-33.579 75-75 75z" fill="#575f64"/><path d="m361 197.344 10.063-31.523c5.378-32.221-3.34-64.755-23.269-90.439l-73.691-2.916-18.089 59.81z" fill="#32393f"/><path d="m256 30c-33.86 0-67.582 14.214-91.785 45.377-19.933 25.69-28.63 58.323-22.751 92.611l9.536 29.385 105-65.089.015-.009 91.78-56.895c-24.011-30.944-57.673-45.38-91.795-45.38z" fill="#575f64"/><path d="m347.794 75.381c-24.01-30.945-57.672-45.381-91.794-45.381v102.285l.015-.009z" fill="#474f54"/></g></svg>