<svg id="Capa_1" enable-background="new 0 0 512 512" height="512" viewBox="0 0 512 512" width="512" xmlns="http://www.w3.org/2000/svg"><g><path d="m414.438 119.813c-20.362-69.96-85.518-119.813-158.438-119.813-72.935 0-138.091 49.853-158.437 119.813-2.789 9.573 4.393 19.189 14.399 19.189h144.038 144.038c10.012.001 17.186-9.621 14.4-19.189z" fill="#ffccb3"/><path d="m414.438 119.813c-20.362-69.96-85.518-119.813-158.438-119.813v139.003h144.038c10.012 0 17.186-9.622 14.4-19.19z" fill="#fb9"/><ellipse cx="256" cy="196" fill="#fdc" rx="256" ry="105"/><path d="m512 196c0-68.203-132.382-105-256-105v210c123.618 0 256-36.797 256-105z" fill="#ffccb3"/><path d="m411.259 174.892c-10.844-4.063-27.805-9.348-50.259-13.934l-30 35.042h-75-75l-30-35.043c-22.454 4.587-39.415 9.871-50.259 13.934-5.859 2.198-9.741 7.794-9.741 14.048v242.095c0 8.291 6.709 15 15 15h150 150c8.291 0 15-6.709 15-15v-242.095c0-6.254-3.882-11.85-9.741-14.047z" fill="#ffb64c"/><path d="m421 431.034v-242.095c0-6.255-3.882-11.851-9.741-14.048-10.844-4.063-27.805-9.348-50.259-13.934l-30 35.043h-75v250.034h150c8.291 0 15-6.709 15-15z" fill="#ff9100"/><path d="m80.6 408.261c-11.809 18.781-19.6 47.139-19.6 88.739 0 8.291 6.709 15 15 15h180z" fill="#fdc"/><path d="m431.397 408.256-175.397 103.744h180c8.291 0 15-6.709 15-15 0-41.603-7.793-69.963-19.603-88.744z" fill="#ffccb3"/><path d="m410.281 385.304c-17.071-12.686-36.4-17.695-55.541-23.562h-98.74-98.74c-19.448 5.96-38.542 10.928-55.545 23.566-7.804 5.799-14.996 13.222-21.116 22.954 36.429 62.737 101.732 103.738 175.401 103.738 73.658 0 138.961-41.003 175.397-103.744-6.12-9.732-13.312-17.153-21.116-22.952z" fill="#a34f3e"/><path d="m431.397 408.256c-6.119-9.732-13.312-17.153-21.116-22.952-17.071-12.686-36.4-17.695-55.541-23.562h-98.74v150.258c73.658 0 138.961-41.003 175.397-103.744z" fill="#873f2e"/><path d="m256 391c-8.291 0-15 6.709-15 15v30c0 8.291 6.709 15 15 15s15-6.709 15-15v-30c0-8.291-6.709-15-15-15z" fill="#f2f2fc"/><path d="m271 436v-30c0-8.291-6.709-15-15-15v60c8.291 0 15-6.709 15-15z" fill="#c7c1dc"/><path d="m327.127 350.036h-71.127-71.127c-7.828 5.072-17.115 8.491-27.612 11.706 19.209 35.863 56.238 59.258 98.739 59.258s79.53-23.395 98.74-59.258c-10.498-3.216-19.785-6.634-27.613-11.706z" fill="#f2f2fc"/><path d="m354.74 361.742c-10.497-3.215-19.785-6.634-27.612-11.706h-71.128v70.964c42.501 0 79.53-23.395 98.74-59.258z" fill="#c7c1dc"/><path d="m302.655 307.665h-46.655-46.655c-3.84 22.703-12.466 34.592-24.472 42.371 14.45 24.917 40.946 40.964 71.127 40.964s56.677-16.047 71.127-40.964c-12.006-7.779-20.632-19.668-24.472-42.371z" fill="#a34f3e"/><path d="m327.127 350.036c-12.006-7.778-20.632-19.667-24.472-42.371h-46.655v83.335c30.181 0 56.677-16.047 71.127-40.964z" fill="#873f2e"/><path d="m256 151c-43.347 0-78.16 4.473-105 9.957v65.043c0 57.99 47.01 105 105 105s105-47.01 105-105v-65.043c-26.84-5.484-61.653-9.957-105-9.957z" fill="#c86e59"/><path d="m361 226v-65.043c-26.84-5.484-61.653-9.957-105-9.957v180c57.99 0 105-47.01 105-105z" fill="#a34f3e"/></g></svg>