<svg id="Capa_1" enable-background="new 0 0 511.832 511.832" height="512" viewBox="0 0 511.832 511.832" width="512" xmlns="http://www.w3.org/2000/svg"><g><path d="m390.916 368.009c-5.938-1.642-11.838-3.104-17.563-4.512-40.854-10.063-65.947-17.622-72.437-56.001h-45-45c-6.489 38.379-31.582 45.938-72.437 56.001-5.726 1.408-11.625 2.869-17.563 4.512l-15 22.822v91l15 30h135 135l15-30v-91z" fill="#a34f3e"/><path d="m405.916 481.832v-91l-15-22.822c-5.938-1.642-11.838-3.104-17.563-4.512-40.854-10.063-65.947-17.622-72.437-56.001h-45v204.335h135z" fill="#873f2e"/><path d="m420.453 255.832c18.378-13.682 30.463-35.38 30.463-60 0-8.291-6.709-15-15-15h-30c-41.353 0-75 33.647-75 75s33.647 75 75 75h30c8.291 0 15-6.709 15-15 0-24.621-12.085-46.319-30.463-60z" fill="#474f54"/><path d="m375.93 27.971c-37.573-18.647-78.794-27.971-120.014-27.971s-82.441 9.324-120.015 27.971c-6.021 2.988-9.316 9.609-8.071 16.216l23.086 128.617 105-.086 105-.084 23.086-128.447c1.245-6.606-2.051-13.228-8.072-16.216z" fill="#ffb64c"/><path d="m384.002 44.187c1.245-6.606-2.051-13.228-8.071-16.216-37.574-18.647-78.795-27.971-120.015-27.971v172.718l105-.084z" fill="#ff9100"/><path d="m309.236 138.351c-4.746-3.149-10.84-3.34-15.762-.542-16.318 9.316-26.938 13.975-37.559 13.975s-21.24-4.658-37.559-13.975c-4.951-2.798-11.001-2.607-15.762.542l-51.68 34.453v83.027c0 8.35 1.058 16.26 2 24.21l103-.005 103.002-.007c.941-7.947 1.998-15.851 1.998-24.197v-83.198z" fill="#fdc"/><path d="m360.916 255.832v-83.198l-51.68-34.283c-4.746-3.149-10.84-3.34-15.762-.542-16.318 9.316-26.938 13.975-37.559 13.975v128.253l103.002-.007c.942-7.948 1.999-15.853 1.999-24.198z" fill="#ffccb3"/><g><path d="m30.916 496.832c0 8.291 6.709 15 15 15h75v-143.823c-43.77 12.104-90 35.62-90 128.823z" fill="#474f54"/><path d="m390.916 368.009v143.822h75c8.291 0 15-6.709 15-15 0-93.202-46.231-116.718-90-128.822z" fill="#32393f"/></g><path d="m338.723 268.986c-14.355-7.822-57.202-28.154-82.808-28.154s-68.451 20.332-82.807 28.168l-20.193 11.041c9.679 81.691 65.356 140.79 103 140.79 37.646 0 93.325-59.108 103.002-140.803z" fill="#474f54"/><path d="m358.918 280.029-20.195-11.043c-14.355-7.822-57.202-28.154-82.808-28.154v180c37.647 0 93.326-59.109 103.003-140.803z" fill="#32393f"/></g></svg>