<svg id="Capa_1" enable-background="new 0 0 512 512" height="512" viewBox="0 0 512 512" width="512" xmlns="http://www.w3.org/2000/svg"><g><path d="m421 378.968c-15.485-7.352-32.122-11.503-47.563-15.302-20.279-4.995-37.771-9.829-49.937-17.666l-67.5 72.041-67.5-72.041c-12.166 7.837-29.658 12.671-49.937 17.666-15.441 3.799-32.078 7.95-47.563 15.302l-15 42.032v60l15 31h165 165l15-31v-60z" fill="#ffb64c"/><path d="m436 481v-60l-15-42.032c-15.485-7.352-32.122-11.503-47.563-15.302-20.279-4.995-37.771-9.829-49.937-17.666l-67.5 72.041v93.959h165z" fill="#ff9100"/><path d="m301 307.665h-45-45c-3.186 18.847-10.677 30.406-22.5 38.335l67.5 41.968 67.5-41.968c-11.823-7.928-19.314-19.488-22.5-38.335z" fill="#a34f3e"/><path d="m301 307.665h-45v80.303l67.5-41.968c-11.823-7.928-19.314-19.488-22.5-38.335z" fill="#873f2e"/><path d="m256 91h-105v135c0 29.526 12.275 56.109 31.893 75.185l30.084-37.626c2.667-4.673 7.647-7.559 13.023-7.559h30 30c5.376 0 10.356 2.886 13.022 7.559l30.084 37.626c19.619-19.078 31.894-45.659 31.894-75.185v-135z" fill="#c86e59"/><path d="m299.022 263.559 30.084 37.626c19.619-19.078 31.894-45.659 31.894-75.185v-135h-105v165h30c5.376 0 10.356 2.886 13.022 7.559z" fill="#a34f3e"/><g><path d="m121.776 260.746c-2.622-7.866 1.626-16.362 9.478-18.97 3.193-1.098 79.746-28.711 79.746-135.776 0-8.291 6.709-15 15-15s15 6.709 15 15c0 129.331-96.167 162.861-100.254 164.224-7.911 2.637-16.366-1.667-18.97-9.478z" fill="#474f54"/></g><g><path d="m76 211c-8.262 0-14.941-6.68-14.971-14.941s6.65-15 14.912-15.059c7.69-.059 75.059-2.637 75.059-75 0-8.291 6.709-15 15-15s15 6.709 15 15c0 83.057-68.687 105-105 105z" fill="#474f54"/></g><g><path d="m371.254 270.224c-4.087-1.363-100.254-34.893-100.254-164.224 0-8.291 6.709-15 15-15s15 6.709 15 15c0 107.944 78.94 135.498 79.746 135.776 7.852 2.607 12.1 11.104 9.478 18.97-2.606 7.817-11.065 12.113-18.97 9.478z" fill="#32393f"/></g><g><path d="m436 211c-36.313 0-105-21.943-105-105 0-8.291 6.709-15 15-15s15 6.709 15 15c0 74.15 71.938 75 75 75 8.291 0 15 6.709 15 15s-6.709 15-15 15z" fill="#32393f"/></g><path d="m292.299 256h-36.299-36.299l-12.211 62.602c14.571 7.656 30.908 12.398 48.51 12.398s33.939-4.742 48.51-12.398z" fill="#c86e59"/><path d="m292.299 256h-36.299v75c17.602 0 33.939-4.742 48.51-12.398z" fill="#a34f3e"/><path d="m331 0c-3.267 0-6.548.322-10.825.85l-64.175 11.865-97.925 18.105c-21.489 3.662-37.075 23.237-37.075 45.18 0 24.814 20.186 45 45 45h90 84.902c15.87 0 50.098-24.798 50.098-61 0-33.091-26.909-60-60-60z" fill="#ffd396"/><path d="m391 60c0-33.091-26.909-60-60-60-3.267 0-6.548.322-10.825.85l-64.175 11.865v108.285h84.902c15.87 0 50.098-24.798 50.098-61z" fill="#ffb64c"/><path d="m299.022 248.559c-2.666-4.673-7.646-7.559-13.022-7.559h-30-30c-5.376 0-10.356 2.886-13.022 7.559l-30.084 52.626c7.218 7.018 15.606 12.695 24.597 17.417l27.21-47.602h21.299 21.299l27.211 47.602c8.99-4.722 17.379-10.399 24.597-17.417z" fill="#474f54"/><path d="m304.51 318.602c8.99-4.722 17.379-10.399 24.597-17.417l-30.084-52.626c-2.667-4.673-7.647-7.559-13.023-7.559h-30v30h21.299z" fill="#32393f"/><path d="m365.644 405.019-42.144-59.019-67.5 41.968-67.5-41.968-42.144 59.019c-2.212 3.311-3.003 7.368-2.227 11.265s3.076 7.324 6.387 9.536l63.882 42.583c7.018 4.653 16.28 2.631 20.801-4.16l20.801-31.202 20.801 31.201c4.521 6.793 13.786 8.809 20.801 4.16l63.882-42.583c3.311-2.212 5.61-5.64 6.387-9.536s-.016-7.954-2.227-11.264z" fill="#474f54"/><path d="m297.602 468.402 63.882-42.583c3.311-2.212 5.61-5.64 6.387-9.536s-.015-7.954-2.227-11.265l-42.144-59.018-67.5 41.968v45.073l20.801 31.201c4.522 6.794 13.785 8.811 20.801 4.16z" fill="#32393f"/><g><path d="m421 378.968v133.032h45c8.291 0 15-6.709 15-15 0-71.75-27.418-102.563-60-118.032z" fill="#873f2e"/><path d="m31 497c0 8.291 6.709 15 15 15h45v-133.032c-32.582 15.469-60 46.282-60 118.032z" fill="#a34f3e"/></g></g></svg>