<svg id="Capa_1" enable-background="new 0 0 511.957 511.957" height="512" viewBox="0 0 511.957 511.957" width="512" xmlns="http://www.w3.org/2000/svg"><g><path d="m450.978 195.957c0-41.162-23.862-78.047-60.469-95.215 2.549-23.774-4.263-48.432-19.336-67.211-27.1-33.779-78.179-43.649-115.195-22.174-36.973-21.475-88.11-11.62-115.195 22.174-15.073 18.779-21.885 43.437-19.336 67.211-36.606 17.168-60.469 54.053-60.469 95.215 0 42.832 25.488 80.332 63.794 96.548-2.505 7.544-3.794 15.439-3.794 23.452 0 31.04 18.691 58.433 47.622 69.756h87.378 87.378c28.931-11.338 47.622-38.716 47.622-69.756 0-8.013-1.289-15.908-3.794-23.452 38.306-16.216 63.794-53.716 63.794-96.548z" fill="#474f54"/><path d="m390.978 315.957c0-8.013-1.289-15.908-3.794-23.452 38.306-16.216 63.794-53.716 63.794-96.548 0-41.162-23.862-78.047-60.469-95.215 2.549-23.774-4.263-48.432-19.336-67.211-27.1-33.779-78.179-43.649-115.195-22.174v374.356h87.378c28.931-11.338 47.622-38.716 47.622-69.756z" fill="#32393f"/><path d="m180.978 352.485c-8.692 4.731-18.939 7.828-30.425 11.255-39.902 11.924-89.575 27.748-89.575 133.217 0 8.291 6.709 15 15 15h105l30-26.25v-109.75z" fill="#c86e59"/><path d="m361.403 363.74c-11.486-3.428-21.733-6.524-30.425-11.255l-30 23.472v112.563l30 23.438h105c8.291 0 15-6.709 15-15 0-105.47-49.672-121.294-89.575-133.218z" fill="#a34f3e"/><path d="m255.978 375.957h-75v136h75 75v-136z" fill="#f2f2fc"/><path d="m255.978 375.957h75v136h-75z" fill="#e2d9fb"/><path d="m302.634 307.622h-46.655-46.655c-4.252 25.137-14.233 37.18-28.345 44.863v23.472c0 41.42 33.578 75 75 75s75-33.58 75-75v-23.472c-14.112-7.684-24.094-19.726-28.345-44.863z" fill="#ffb3b3"/><path d="m330.978 375.957v-23.472c-14.112-7.683-24.093-19.726-28.345-44.863h-46.655v143.335c41.423 0 75-33.58 75-75z" fill="#f99"/><path d="m345.978 150.957c-24.6 0-46.199-11.7-60-30-7.762 10.291-18.159 18.153-30 23.364-9.214 4.054-19.233 6.636-30 6.636h-60c-8.284 0-15 6.714-15 15v60c0 57.989 47.01 105 105 105s105-47.01 105-105v-60c0-8.286-6.716-15-15-15z" fill="#fcc"/><path d="m360.978 225.957v-60c0-8.286-6.716-15-15-15-24.6 0-46.199-11.7-60-30-7.762 10.291-18.159 18.153-30 23.364v186.636c57.99 0 105-47.011 105-105z" fill="#ffb3b3"/></g></svg>