<svg id="Capa_1" enable-background="new 0 0 512 512" height="512" viewBox="0 0 512 512" width="512" xmlns="http://www.w3.org/2000/svg"><g><g><path d="m31 497c0 8.291 6.709 15 15 15h141.502l-2.988-54.983-79.645-83.747c-38.282 13.66-73.869 41.973-73.869 123.73z" fill="#575f64"/><path d="m407.132 373.27-72.589 71.981-10.051 66.749h141.508c8.291 0 15-6.709 15-15 0-81.757-35.587-110.07-73.868-123.73z" fill="#474f54"/></g><path d="m420.063 340.8c-1.567-4.277-5.01-7.588-9.316-9.023l-79.747-32.777-30-5.925h-45-45l-30 5.925-79.746 32.776c-4.307 1.436-7.749 4.746-9.316 9.023-1.582 4.263-1.143 9.009 1.201 12.92l11.73 19.55 82.633 138.731h68.498 68.492l82.639-138.73 11.73-19.55c2.344-3.911 2.784-8.657 1.202-12.92z" fill="#474f54"/><path d="m407.132 373.27 11.73-19.55c2.344-3.911 2.783-8.657 1.201-12.92-1.567-4.277-5.01-7.588-9.316-9.023l-79.747-32.777-30-5.925h-45v218.925h68.492z" fill="#32393f"/><path d="m256 241h-75v58l75 180.568 75-180.568v-58z" fill="#f2f2fc"/><path d="m331 241h-75v238.568l75-180.568z" fill="#e2d9fb"/><path d="m256 30c-57.99 0-105 47.01-105 105v91c0 52.852 39.179 96.152 90 103.488l15-28.488 15 28.488c50.821-7.335 90-50.636 90-103.488v-91c0-57.99-47.01-105-105-105z" fill="#fdc"/><path d="m361 226v-91c0-57.99-47.01-105-105-105v271l15 28.488c50.821-7.336 90-50.636 90-103.488z" fill="#ffccb3"/><path d="m256 271c-8.291 0-15 6.709-15 15v43.488c4.94.712 9.862 1.512 15 1.512s10.06-.8 15-1.512v-43.488c0-8.291-6.709-15-15-15z" fill="#474f54"/><path d="m271 286c0-8.291-6.709-15-15-15v60c5.138 0 10.06-.8 15-1.512z" fill="#32393f"/><path d="m256 0c-41.353 0-75 33.647-75 75 0 37.676 53.877 90.645 64.688 100.884 2.885 2.739 6.606 4.116 10.312 4.116s7.427-1.377 10.313-4.116c10.81-10.239 64.687-63.208 64.687-100.884 0-41.353-33.647-75-75-75z" fill="#474f54"/><path d="m331 75c0-41.353-33.647-75-75-75v180c3.706 0 7.427-1.377 10.313-4.116 10.81-10.239 64.687-63.208 64.687-100.884z" fill="#32393f"/></g></svg>