<svg id="Capa_1" enable-background="new 0 0 512 512" height="512" viewBox="0 0 512 512" width="512" xmlns="http://www.w3.org/2000/svg"><g><path d="m256 0c-91.128 0-165 73.872-165 165v257h165 165v-257c0-91.128-73.872-165-165-165z" fill="#ffb64c"/><path d="m421 165c0-91.128-73.872-165-165-165v422h165z" fill="#ff9100"/><path d="m361.425 364.783c-11.25-3.358-21.557-6.376-30.425-10.944h-75-75c-8.868 4.568-19.175 7.586-30.425 10.944-39.902 11.924-89.575 26.748-89.575 132.217 0 8.291 6.709 15 15 15h180 180c8.291 0 15-6.709 15-15 0-105.469-49.673-120.293-89.575-132.217z" fill="#f2f2fc"/><path d="m451 497c0-105.469-49.673-120.293-89.575-132.217-11.25-3.358-21.557-6.376-30.425-10.944h-75v158.161h180c8.291 0 15-6.709 15-15z" fill="#e2d9fb"/><path d="m301 308.665h-45-45c-4.305 25.455-15.117 37.505-30 45.174v74.431c0 6.636 4.351 12.466 10.708 14.37 20.771 6.211 42.407 9.36 64.292 9.36s43.521-3.149 64.292-9.36c6.357-1.904 10.708-7.734 10.708-14.37v-74.431c-14.883-7.668-25.695-19.719-30-45.174z" fill="#474f54"/><path d="m331 428.27v-74.431c-14.883-7.668-25.695-19.719-30-45.174h-45v143.335c21.885 0 43.521-3.149 64.292-9.36 6.357-1.905 10.708-7.735 10.708-14.37z" fill="#32393f"/><path d="m256 308.665h-45v95.652c0 7.22 5.081 13.72 12.2 14.923 10.805 1.824 21.802 2.737 32.8 2.737s21.995-.914 32.8-2.737c7.119-1.203 12.2-7.703 12.2-14.923v-95.652z" fill="#a34f3e"/><path d="m301 404.318v-95.652h-45v113.313c10.997 0 21.995-.914 32.8-2.737 7.119-1.204 12.2-7.705 12.2-14.924z" fill="#873f2e"/><path d="m346 90h-63.735c-2.388 0-4.746.571-6.885 1.67l-19.38 10.001-93.649 48.329 19.118 15h74.531 69.844l35.156-15v-45c0-8.291-6.709-15-15-15z" fill="#474f54"/><path d="m361 150v-45c0-8.291-6.709-15-15-15h-63.735c-2.388 0-4.746.571-6.885 1.67l-19.38 10.001v63.329h69.844z" fill="#32393f"/><path d="m256 150h-93.649l-3.235 1.67c-4.98 2.578-8.115 7.72-8.115 13.33v62c0 57.891 47.109 105 105 105s105-47.109 105-105v-77z" fill="#c86e59"/><path d="m361 227v-77h-105v182c57.891 0 105-47.109 105-105z" fill="#a34f3e"/></g></svg>