<svg id="Capa_1" enable-background="new 0 0 512.007 512.007" height="512" viewBox="0 0 512.007 512.007" width="512" xmlns="http://www.w3.org/2000/svg"><g><path d="m373.44 364.673c-8.901-2.194-18.514-4.589-27.59-7.696l-89.846 155.03h210c8.291 0 15-6.709 15-15-.001-89.622-39.921-115.69-107.564-132.334z" fill="#884dff"/><path d="m166.152 356.988c-9.106 3.118-18.719 5.5-27.585 7.685-67.555 16.621-107.564 42.483-107.564 132.334 0 8.291 6.709 15 15 15h210z" fill="#aa80ff"/><path d="m388.484 428.686-42.634-71.71c-9.124-3.122-17.706-6.965-24.47-12.057l-65.376 90.765-.002.002-64.997-91.071c-6.879 5.279-15.606 9.205-24.853 12.372l-42.629 71.699c-5.019 7.513-2.271 17.732 5.771 21.738l120 60c3.001 1.044 3.706 1.582 6.709 1.582 3.054 0 3.578-.493 6.709-1.582l120-60c8.057-4.013 10.782-14.238 5.772-21.738z" fill="#474f54"/><path d="m382.712 450.425c8.057-4.014 10.781-14.238 5.771-21.738l-42.634-71.71c-9.124-3.122-17.706-6.965-24.47-12.057l-65.376 90.765v76.322c3.054 0 3.578-.493 6.709-1.582z" fill="#32393f"/><path d="m256.003 344.767-64.998-.152 64.996 121.071.002-.003 65.376-120.764z" fill="#f2f2fc"/><path d="m256.003 344.767v120.916l65.376-120.764z" fill="#e2d9fb"/><path d="m301.003 308.672h-45-45c-2.921 17.271-9.803 28.12-19.999 35.944 19.77 10.983 41.808 17.391 64.999 17.391 23.34 0 45.643-6.103 65.376-17.087-10.413-7.843-17.419-18.76-20.376-36.248z" fill="#ffccb3"/><path d="m301.003 308.672h-45v53.335c23.34 0 45.643-6.103 65.376-17.087-10.413-7.843-17.419-18.76-20.376-36.248z" fill="#fb9"/><path d="m256.003 60.007c-57.99 0-105 47.01-105 105v60c0 57.99 47.01 107 105 107s105-49.01 105-107v-60c0-57.99-47.01-105-105-105z" fill="#fdc"/><path d="m361.003 225.007v-60c0-57.99-47.01-105-105-105v272c57.99 0 105-49.011 105-107z" fill="#ffccb3"/><path d="m346.003 150.007h-90-90c-8.291 0-15 6.709-15 15 0 33.091 26.909 60 60 60 18.007 0 33.995-8.134 45-20.729 11.005 12.596 26.993 20.729 45 20.729 33.091 0 60-26.909 60-60 0-8.291-6.709-15-15-15z" fill="#474f54"/><path d="m361.003 165.007c0-8.291-6.709-15-15-15h-90v54.271c11.005 12.596 26.993 20.729 45 20.729 33.091 0 60-26.91 60-60z" fill="#32393f"/><path d="m351.745 1.149c-5.596-2.344-12.041-1.025-16.348 3.252-16.245 16.274-49.658 6.738-71.763.396-2.91-.831-5.164-1.395-7.632-2.054-5.797-1.551-10.9-2.736-15-2.736-33.091 0-60 26.909-60 60s26.909 60 60 60c5.286 0 10.031-.619 15-.983 66.729-4.896 105-41.918 105-104.017.001-6.065-3.646-11.543-9.257-13.858z" fill="#ffb64c"/><path d="m361.003 15.007c0-6.064-3.647-11.543-9.258-13.857-5.596-2.344-12.041-1.025-16.348 3.252-16.245 16.274-49.658 6.738-71.763.396-2.91-.831-5.164-1.395-7.632-2.054v116.281c66.73-4.898 105.001-41.92 105.001-104.018z" fill="#ff9100"/></g></svg>