<svg id="Capa_1" enable-background="new 0 0 512 512" height="512" viewBox="0 0 512 512" width="512" xmlns="http://www.w3.org/2000/svg"><g><path d="m391 368.178c-5.938-1.642-11.838-3.104-17.563-4.512-17.333-4.27-31.339-8.221-42.437-14.134l-30 26.468h-45-45l-30-26.468c-11.098 5.912-25.104 9.864-42.437 14.134-5.726 1.408-11.625 2.869-17.563 4.512l-15 26.104v92.875l15 24.843h135 135l15-21.563v-91.937z" fill="#f2f2fc"/><path d="m406 490.438v-91.938l-15-30.322c-5.938-1.642-11.838-3.104-17.563-4.512-17.333-4.27-31.339-8.221-42.437-14.134l-30 26.468h-45v136h135z" fill="#e2d9fb"/><path d="m31 497c0 8.291 6.709 15 15 15h75v-143.822c-43.77 12.103-90 35.619-90 128.822z" fill="#575f64"/><path d="m391 368.178v143.822h75c8.291 0 15-6.709 15-15 0-93.203-46.23-116.719-90-128.822z" fill="#32393f"/><path d="m301 307.665h-45-45c-7.381 16.723-7.859 30.073-30 41.867v26.468c0 41.353 33.647 75 75 75s75-33.647 75-75v-26.468c-23.342-12.435-24.571-29.566-30-41.867z" fill="#ffccb3"/><path d="m331 376v-26.468c-23.342-12.435-24.571-29.566-30-41.867h-45v143.335c41.353 0 75-33.647 75-75z" fill="#fb9"/><path d="m256 90h-105v135c0 57.891 47.109 106 105 106s105-48.109 105-106v-135z" fill="#fdc"/><path d="m361 225v-135h-105v241c57.891 0 105-48.109 105-106z" fill="#ffccb3"/><path d="m396.916 116.248c-15.98-41.272-51.194-72.114-94.114-82.469l-3.119 56.221 1.317 30c13.627 58.942 39.598 63.201 60 58.705l35.229-50.634c1.828-3.656 2.163-8.011.687-11.823z" fill="#32393f"/><path d="m115.084 116.248c15.98-41.272 51.194-72.114 94.114-82.469l3.118 56.221-1.316 30c-13.627 58.942-39.598 63.201-60 58.705l-35.229-50.634c-1.827-3.656-2.162-8.011-.687-11.823z" fill="#474f54"/><path d="m256 0h-90c-5.2 0-10.02 2.695-12.759 7.119s-2.988 9.946-.659 14.59l58.418 98.291h45 45c45.333-49.506 7.621-120-45-120z" fill="#575f64"/><path d="m256 0v120h45c45.333-49.506 7.621-120-45-120z" fill="#474f54"/></g></svg>