<svg id="Capa_1" enable-background="new 0 0 512 512" height="512" viewBox="0 0 512 512" width="512" xmlns="http://www.w3.org/2000/svg"><g><path d="m257.45 0c-.491.002-.959.071-1.45.077-94.301 1.115-165 76.058-165 164.923v151c0 8.291 6.709 15 15 15h120l30-75.943 45-114.915v-95.142c0-24.595-19.541-44.78-43.55-45z" fill="#aa80ff"/><path d="m301 45c0-24.595-19.541-44.78-43.55-45-.491.002-.959.071-1.45.077v254.98l45-114.915z" fill="#884dff"/><g><path d="m365.395 236.605-30-30c-5.859-5.859-5.859-15.352 0-21.211s15.352-5.859 21.211 0l30 30c5.859 5.859 5.859 15.352 0 21.211-5.86 5.86-15.352 5.86-21.211 0z" fill="#ff9100"/></g><path d="m256 60c-57.891 0-105 47.109-105 105v61c0 57.891 47.109 105 105 105s105-47.109 105-105v-61c0-57.891-47.109-105-105-105z" fill="#fcc"/><path d="m361 226v-61c0-57.891-47.109-105-105-105v271c57.891 0 105-47.109 105-105z" fill="#ffb3b3"/><path d="m361.425 363.783c-3.6-1.075-7.062-2.115-10.411-3.181l-95.014-.029-94.818-.029c-3.408 1.086-6.94 2.144-10.607 3.239-27.433 8.198-59.48 17.767-76.835 57.217l28.041 15h154.219 140.624l41.635-15c-17.354-39.45-49.401-49.019-76.834-57.217z" fill="#ffb3b3"/><path d="m438.26 421c-17.355-39.45-49.402-49.019-76.835-57.217-3.6-1.075-7.062-2.115-10.411-3.181l-95.014-.029v75.427h140.624z" fill="#f99"/><path d="m320.2 344.605-64.2-.183-63.82-.181c-8.223 7.835-18.657 12.367-30.998 16.304 27.637 19.584 60.332 30.455 94.818 30.455 34.647 0 67.595-10.908 95.013-30.397-12.233-3.891-22.604-8.352-30.813-15.998z" fill="#474f54"/><path d="m320.2 344.605-64.2-.183v46.578c34.647 0 67.595-10.908 95.013-30.397-12.233-3.891-22.604-8.352-30.813-15.998z" fill="#32393f"/><path d="m302.655 307.665h-46.655-46.655c-3.005 17.77-9.003 28.799-17.164 36.575 19.476 10.567 41.086 16.76 63.819 16.76 22.831 0 44.784-5.795 64.2-16.395-8.36-7.79-14.492-18.893-17.545-36.94z" fill="#ffb3b3"/><path d="m302.655 307.665h-46.655v53.335c22.831 0 44.784-5.795 64.2-16.395-8.36-7.79-14.492-18.893-17.545-36.94z" fill="#f99"/><path d="m447.1 451-34.537-15h-156.563-163.126l-27.974 15c-2.439 12.863-3.9 28.594-3.9 46 0 8.291 6.709 15 15 15h180 180c8.291 0 15-6.709 15-15 0-17.406-1.461-33.137-3.9-46z" fill="#474f54"/><path d="m451 497c0-17.406-1.461-33.137-3.9-46l-34.537-15h-156.563v76h180c8.291 0 15-6.709 15-15z" fill="#32393f"/><path d="m438.26 421h-182.26-182.26c-3.723 8.461-6.661 18.506-8.84 30h191.1 191.1c-2.179-11.494-5.118-21.539-8.84-30z" fill="#f2f2fc"/><path d="m438.26 421h-182.26v30h191.1c-2.179-11.494-5.118-21.539-8.84-30z" fill="#e2d9fb"/></g></svg>