<svg id="Capa_1" enable-background="new 0 0 512 512" height="512" viewBox="0 0 512 512" width="512" xmlns="http://www.w3.org/2000/svg"><g><path d="m391 369.178c-5.938-1.642-11.838-3.104-17.563-4.512-40.854-10.063-65.947-17.622-72.437-56.001h-45-45c-6.489 38.379-31.582 45.938-72.437 56.001-5.726 1.408-11.625 2.869-17.563 4.512l-15 22.822v90l15 30h135 135l15-30v-90z" fill="#474f54"/><path d="m406 482v-90l-15-22.822c-5.938-1.642-11.838-3.104-17.563-4.512-40.854-10.063-65.947-17.622-72.437-56.001h-45v203.335h135z" fill="#32393f"/><path d="m256 197h-105v60c0 57.9 47.1 105 105 105s105-47.1 105-105v-60z" fill="#c86e59"/><path d="m361 257v-60h-105v165c57.9 0 105-47.1 105-105z" fill="#a34f3e"/><path d="m256 61c-57.9 0-105 47.1-105 105v31c0 16.337 24.492 47.399 60 47.399 17.701 0 33.9-7.2 45-19.499 11.1 12.299 27.299 19.499 45 19.499 34.75 0 60-29.861 60-47.399v-31c0-57.849-47.278-105-105-105z" fill="#fdc"/><path d="m361 197v-31c0-57.848-47.278-105-105-105v163.9c11.1 12.299 27.299 19.499 45 19.499 34.75 0 60-29.861 60-47.399z" fill="#ffccb3"/><g><path d="m31 497c0 8.291 6.709 15 15 15h75v-142.822c-43.77 12.103-90 34.619-90 127.822z" fill="#f2f2fc"/><path d="m391 369.178v142.822h75c8.291 0 15-6.709 15-15 0-93.203-46.23-115.719-90-127.822z" fill="#e2d9fb"/></g><path d="m322.709 363.582c-5.068-2.505-11.177-1.992-15.703 1.421l-51.006 38.247-51.006-38.247c-4.512-3.428-10.591-3.94-15.703-1.421-5.083 2.549-8.291 7.734-8.291 13.418v90c0 5.684 3.208 10.869 8.291 13.418 5.098 2.549 11.177 2.007 15.703-1.421l51.006-38.247 51.006 38.247c4.398 3.322 10.463 4.023 15.703 1.421 5.083-2.549 8.291-7.734 8.291-13.418v-90c0-5.684-3.208-10.869-8.291-13.418z" fill="#f66"/><path d="m322.709 480.418c5.083-2.549 8.291-7.734 8.291-13.418v-90c0-5.684-3.208-10.869-8.291-13.418-5.068-2.505-11.177-1.992-15.703 1.421l-51.006 38.247v37.5l51.006 38.247c4.398 3.322 10.463 4.023 15.703 1.421z" fill="#e62e2e"/><path d="m298.173 6.226c-2.827-3.912-7.354-6.226-12.173-6.226h-30-30c-4.819 0-9.346 2.314-12.173 6.226-2.813 3.911-3.589 8.95-2.051 13.521l30 91c2.036 6.122 7.764 10.253 14.224 10.253s12.187-4.131 14.224-10.254l30-91c1.538-4.57.761-9.609-2.051-13.52z" fill="#c86e59"/><path d="m270.224 110.746 30-91c1.538-4.57.762-9.609-2.051-13.521-2.827-3.911-7.354-6.225-12.173-6.225h-30v121c6.46 0 12.187-4.131 14.224-10.254z" fill="#a34f3e"/></g></svg>