<svg id="Capa_1" enable-background="new 0 0 512 512" height="512" viewBox="0 0 512 512" width="512" xmlns="http://www.w3.org/2000/svg"><g><path d="m338.425 364.783c-3.748-1.119-7.366-2.197-10.844-3.311l-94.581.035-94.818.037c-3.408 1.086-6.94 2.144-10.607 3.239-39.902 11.924-89.575 26.748-89.575 132.217 0 8.291 6.709 15 15 15h180 180c8.291 0 15-6.709 15-15 0-105.469-49.673-120.293-89.575-132.217z" fill="#f2f2fc"/><path d="m428 497c0-105.469-49.673-120.293-89.575-132.217-3.748-1.119-7.366-2.197-10.844-3.311l-94.581.035v150.493h180c8.291 0 15-6.709 15-15z" fill="#e2d9fb"/><path d="m296.701 345.129-63.701.055-63.82.057c-8.223 7.835-18.657 12.367-30.998 16.304 27.637 19.584 60.332 30.455 94.818 30.455 34.31 0 66.929-10.895 94.581-30.527-12.304-3.935-22.69-8.484-30.88-16.344z" fill="#474f54"/><path d="m296.701 345.129-63.701.055v46.816c34.31 0 66.929-10.895 94.581-30.527-12.304-3.935-22.69-8.484-30.88-16.344z" fill="#32393f"/><path d="m279.655 308.665h-46.655-46.655c-3.005 17.77-9.003 28.799-17.164 36.575 19.476 10.567 41.086 16.76 63.819 16.76 22.635 0 44.211-6.231 63.701-16.871-8.099-7.773-14.056-18.78-17.046-36.464z" fill="#ffb3b3"/><path d="m279.655 308.665h-46.655v53.335c22.635 0 44.211-6.231 63.701-16.871-8.099-7.773-14.056-18.78-17.046-36.464z" fill="#f99"/><g><path d="m338 203.535v233.465c0 8.284 6.716 15 15 15 24.853 0 45-20.147 45-45v-167z" fill="#32393f"/></g><path d="m233 0c-91.128 0-165 73.872-165 165v242c0 24.853 20.147 45 45 45 8.284 0 15-6.716 15-15v-212s52.491 2.232 105 4.471c51.277 2.188 102.572 4.385 105 4.528 13.361 4.091 28.434 6 45 6h15v-75c0-91.127-73.872-164.999-165-164.999z" fill="#474f54"/><path d="m383 240h15v-75c0-91.128-73.872-165-165-165v229.471c51.277 2.188 102.572 4.385 105 4.528 13.361 4.091 28.434 6.001 45 6.001z" fill="#32393f"/><path d="m465.709 91.582c-5.068-2.505-11.177-1.992-15.703 1.421l-52.006 38.247-51.006-38.247c-4.526-3.413-10.605-3.94-15.703-1.421-5.083 2.549-8.291 7.734-8.291 13.418v90c0 5.684 3.208 10.869 8.291 13.418 5.098 2.549 11.177 2.007 15.703-1.421l51.006-38.247 52.006 38.247c4.398 3.323 10.463 4.023 15.703 1.421 5.083-2.549 8.291-7.734 8.291-13.418v-90c0-5.684-3.208-10.869-8.291-13.418z" fill="#ff5f96"/><path d="m248.601 165.3c-4.931-7.354-10.184-13.491-15.601-18.699-37.048-35.627-81.982-25.309-87.599-26.602-5.101.899-9.6 4.799-11.4 9.6-3.9 11.4-6 23.399-6 35.4v60c0 57.9 47.1 107 105 107 44.7 0 82.8-28.9 97.8-68.2 3.9-9.3 6.601-19.6 7.2-29.801-46.2-13.797-75.001-47.099-89.4-68.698z" fill="#fcc"/><path d="m330.8 263.8c3.9-9.3 6.601-19.6 7.2-29.801-46.199-13.799-75-47.1-89.399-68.699-4.931-7.354-10.184-13.491-15.601-18.699v185.399c44.7 0 82.8-28.9 97.8-68.2z" fill="#ffb3b3"/></g></svg>