<svg id="Capa_1" enable-background="new 0 0 512 512" height="512" viewBox="0 0 512 512" width="512" xmlns="http://www.w3.org/2000/svg"><g><path d="m163.003 357.919c-7.386 2.36-15.45 4.534-24.439 6.747-47.93 11.792-107.564 26.484-107.564 132.334 0 8.291 6.709 15 15 15h135z" fill="#474f54"/><path d="m373.437 364.666c-8.989-2.214-17.053-4.387-24.439-6.747l-17.998 154.081h135c8.291 0 15-6.709 15-15 0-105.85-59.634-120.542-107.563-132.334z" fill="#32393f"/><path d="m163.003 357.919-53.882 69.926c-4.6 5.977-4.058 14.429 1.274 19.761l70.605 64.394 15-22.235v-116.471l-15-22.416c-5.343 2.697-11.413 4.939-17.997 7.041z" fill="#575f64"/><path d="m402.88 427.845-53.882-69.926c-6.584-2.102-12.654-4.343-17.997-7.04l-15 19.592v120.353l14.999 21.176 70.605-64.395c5.333-5.332 5.874-13.784 1.275-19.76z" fill="#474f54"/><path d="m301 308.665h-45-45c-3.788 22.407-14.094 34.184-30 42.213v161.122h75 75v-161.122c-15.906-8.029-26.212-19.806-30-42.213z" fill="#80bfff"/><path d="m331 350.878c-15.906-8.029-26.212-19.807-30-42.213h-45v203.335h75z" fill="#4895ff"/><g><path d="m406 180c-8.291 0-15-6.709-15-15 0-24.814-20.186-45-45-45-8.291 0-15-6.709-15-15s6.709-15 15-15c41.353 0 75 33.647 75 75 0 8.291-6.709 15-15 15z" fill="#32393f"/></g><path d="m256 308.665h-45v68.335c0 24.853 20.147 45 45 45s45-20.147 45-45v-68.335z" fill="#ffccb3"/><path d="m301 377v-68.335h-45v113.335c24.853 0 45-20.147 45-45z" fill="#fb9"/><path d="m256 0c-24.814 0-45 20.186-45 45v30c0 8.291 6.709 15 15 15h30 30c8.291 0 15-6.709 15-15v-30c0-24.814-20.186-45-45-45z" fill="#474f54"/><path d="m301 75v-30c0-24.814-20.186-45-45-45v90h30c8.291 0 15-6.709 15-15z" fill="#32393f"/><path d="m286 60h-30-30c-41.422 0-75 33.578-75 75v36.971h105 105v-36.971c0-41.422-33.578-75-75-75z" fill="#575f64"/><path d="m361 135c0-41.422-33.578-75-75-75h-30v111.971h105z" fill="#474f54"/><path d="m309.32 137.52c-4.746-3.12-10.84-3.369-15.762-.542-16.318 9.316-26.938 13.975-37.559 13.975s-21.24-4.658-37.559-13.975c-4.951-2.827-11.001-2.578-15.762.542l-51.678 34.451v55.029c0 52.852 39.179 96.152 90 103.488l15-28.488 15 28.488c50.821-7.335 90-50.636 90-103.488v-55.029z" fill="#fdc"/><path d="m361 227v-55.029l-51.68-34.451c-4.746-3.12-10.84-3.369-15.762-.542-16.318 9.316-26.938 13.975-37.559 13.975v151.047l15 28.488c50.822-7.336 90.001-50.636 90.001-103.488z" fill="#ffccb3"/><path d="m256 272c-8.284 0-15 6.714-15 15v43.488c4.94.712 9.862 1.512 15 1.512s10.06-.8 15-1.512v-43.488c0-8.286-6.716-15-15-15z" fill="#575f64"/><path d="m271 287c0-8.286-6.716-15-15-15v60c5.138 0 10.06-.8 15-1.512z" fill="#474f54"/></g></svg>