<svg id="Capa_1" enable-background="new 0 0 511.993 511.993" height="512" viewBox="0 0 511.993 511.993" width="512" xmlns="http://www.w3.org/2000/svg"><path d="m420.337 151-168.34 13-160.34-13c7.57-84.53 78.39-151 164.34-151s156.77 66.47 164.34 151z" fill="#ffb64c"/><path d="m420.337 151c-7.57-84.53-78.39-151-164.34-151v163.691z" fill="#ff9100"/><path d="m431.606 305.39c8.18 8.19 19.39 19.4 19.39 40.61s-11.21 32.42-19.39 40.61c-6.34 6.34-9.69 9.95-10.44 16.41l-.08.65c-.62 5.59-4.32 10.35-9.58 12.35-1.73.65-3.53.97-5.32.97-3.65 0-7.24-1.33-10.04-3.86-6.4-5.76-14.22-10.18-25.37-14.32-5.81-2.16-11.77-3.98-18.08-5.91-12.83-3.92-26.01-7.95-38.16-15.03-16.31 6.93-35.65 13.13-58.54 13.13s-42.23-6.2-58.54-13.13c-12.15 7.08-25.33 11.11-38.16 15.03-6.31 1.93-12.27 3.75-18.08 5.91-11.15 4.14-18.97 8.56-25.37 14.32-4.18 3.77-10.1 4.88-15.36 2.89-5.26-2-8.96-6.76-9.58-12.35l-.08-.71c-.75-6.4-4.1-10.01-10.44-16.35-8.18-8.19-19.39-19.4-19.39-40.61s11.21-32.42 19.39-40.61c7.36-7.35 10.61-10.96 10.61-19.39s-3.25-12.04-10.61-19.39c-8.18-8.19-19.39-19.4-19.39-40.61s11.21-32.42 19.39-40.61c1.62-1.61 3.04-3.05 4.27-4.39l167.34-15 175.34 15c1.23 1.34 2.65 2.78 4.27 4.39 8.18 8.19 19.39 19.4 19.39 40.61s-11.21 32.42-19.39 40.61c-7.36 7.35-10.61 10.96-10.61 19.39s3.251 12.04 10.61 19.39z" fill="#ffb64c"/><path d="m352.697 392.9c6.31 1.93 12.27 3.75 18.08 5.91 11.15 4.14 18.97 8.56 25.37 14.32 2.8 2.53 6.39 3.86 10.04 3.86 1.79 0 3.59-.32 5.32-.97 5.26-2 8.96-6.76 9.58-12.35l.08-.65c.75-6.46 4.1-10.07 10.44-16.41 8.18-8.19 19.39-19.4 19.39-40.61s-11.21-32.42-19.39-40.61c-7.36-7.35-10.61-10.96-10.61-19.39s3.25-12.04 10.61-19.39c8.18-8.19 19.39-19.4 19.39-40.61s-11.21-32.42-19.39-40.61c-1.62-1.61-3.04-3.05-4.27-4.39l-171.34-14.658v224.658c22.89 0 42.23-6.2 58.54-13.13 12.15 7.08 25.33 11.11 38.16 15.03z" fill="#ff9100"/><g><path d="m330.997 352.156c-4.528-2.54-8.84-5.402-12.523-9.205h-62.477-62.477c-3.684 3.805-7.994 6.671-12.523 9.208l-15 33.677v105.531l15 20.625h75 75l15-21.563v-109.75z" fill="#f2f2fc"/><path d="m345.997 490.431v-109.75l-15-28.524c-4.528-2.54-8.84-5.402-12.523-9.205h-62.477v169.041h75z" fill="#e2d9fb"/><path d="m302.652 307.658h-46.655-46.655c-2.84 16.796-8.348 27.576-15.822 35.294 20.722 10.074 39.959 18.041 62.477 18.041s41.755-7.967 62.477-18.041c-7.474-7.718-12.982-18.498-15.822-35.294z" fill="#ffb3b3"/><path d="m302.652 307.658h-46.655v53.335c22.518 0 41.755-7.967 62.477-18.041-7.474-7.718-12.982-18.498-15.822-35.294z" fill="#f99"/><path d="m60.997 496.993c0 8.291 6.709 15 15 15h45l15-12.656v-96.157l-15-29.075c-31.295 13.96-60 42.719-60 122.888z" fill="#f2f2fc"/><path d="m390.997 374.105-15 37.513v80.219l15 20.156h45c8.291 0 15-6.709 15-15 0-80.169-28.706-108.928-60-122.888z" fill="#e2d9fb"/><path d="m150.572 363.776c-9.571 2.86-19.698 5.923-29.575 10.329v137.888h60v-159.833c-9.269 5.199-19.823 8.454-30.425 11.616z" fill="#aa80ff"/><path d="m361.421 363.776c-10.653-3.179-21.185-6.442-30.425-11.62v159.837h60v-137.888c-9.876-4.405-20.004-7.469-29.575-10.329z" fill="#884dff"/></g><path d="m255.997 331c-57.897 0-105-47.103-105-105v-60c0-8.284 6.716-15 15-15 24.393 0 45-21.065 45-46 0-24.813 20.187-45 45-45s45 20.187 45 45c0 24.935 20.607 46 45 46 8.284 0 15 6.716 15 15v60c0 57.897-47.103 105-105 105z" fill="#fcc"/><path d="m360.997 226v-60c0-8.284-6.716-15-15-15-24.393 0-45-21.065-45-46 0-24.813-20.187-45-45-45v271c57.897 0 105-47.103 105-105z" fill="#ffb3b3"/><g><path d="m427.337 181h-342.681c4.36-4.78 6.34-8.42 6.34-15 0-5.06.23-10.06.66-15h328.68c.43 4.94.66 9.94.66 15 .001 6.58 1.981 10.22 6.341 15z" fill="#f66"/></g><path d="m255.997 181h171.34c-4.36-4.78-6.34-8.42-6.34-15 0-5.06-.23-10.06-.66-15h-164.34z" fill="#e62e2e"/></svg>