<svg id="Capa_1" enable-background="new 0 0 512 512" height="512" viewBox="0 0 512 512" width="512" xmlns="http://www.w3.org/2000/svg"><g><path d="m391 368.178c-5.938-1.642-11.838-3.104-17.563-4.512-21.335-5.255-38.033-10.53-49.937-19.166l-67.5 28.801-67.5-28.801c-11.904 8.635-28.601 13.911-49.937 19.166-5.726 1.408-11.625 2.869-17.563 4.512l-15 22.822v91l15 30h135 135l15-30v-91z" fill="#c86e59"/><path d="m406 482v-91l-15-22.822c-5.938-1.642-11.838-3.104-17.563-4.512-21.335-5.255-38.033-10.53-49.937-19.166l-67.5 28.801v138.699h135z" fill="#a34f3e"/><path d="m302.655 307.665h-46.655-46.655c-3.281 19.406-10.4 29.255-20.845 36.835l67.5 73.467 67.5-73.467c-10.459-7.591-17.569-17.462-20.845-36.835z" fill="#ffccb3"/><path d="m302.655 307.665h-46.655v110.303l67.5-73.467c-10.459-7.592-17.569-17.463-20.845-36.836z" fill="#fb9"/><path d="m360.956 142.987-104.956.022-104.956.022-.044 82.969c0 57.891 47.109 105 105 105s105-47.109 105-105.015z" fill="#fdc"/><path d="m361 225.985-.044-82.998-104.956.022v187.991c57.891 0 105-47.109 105-105.015z" fill="#ffccb3"/><path d="m323.5 344.5-67.5 43.468-67.5-43.468c-33.508 34.678-26.277 89.121 11.938 114.6l13.96 9.302c8.246 5.465 15.048 4.484 20.801-4.16l20.801-31.201 20.801 31.201c5.752 8.644 12.555 9.625 20.801 4.16l13.96-9.302c38.215-25.479 45.446-79.921 11.938-114.6z" fill="#474f54"/><path d="m297.602 468.402 13.96-9.302c38.216-25.479 45.447-79.922 11.938-114.6l-67.5 43.468v45.073l20.801 31.201c5.752 8.644 12.554 9.626 20.801 4.16z" fill="#32393f"/><path d="m301 121c-18.007 0-33.995 8.134-45 20.729-11.005-12.595-26.993-20.729-45-20.729-33.091 0-60 26.909-60 60s26.909 60 60 60c18.007 0 33.995-8.134 45-20.729 11.005 12.595 26.993 20.729 45 20.729 33.091 0 60-26.909 60-60s-26.909-60-60-60z" fill="#474f54"/><path d="m361 181c0-33.091-26.909-60-60-60-18.007 0-33.995 8.134-45 20.729v78.541c11.005 12.596 26.993 20.73 45 20.73 33.091 0 60-26.909 60-60z" fill="#32393f"/><path d="m256 0c-74.443 0-135 61.557-135 136 0 8.291 6.709 15 15 15h120 120c8.291 0 15-6.709 15-15 0-74.443-60.557-136-135-136z" fill="#ffb64c"/><path d="m391 136c0-74.443-60.557-136-135-136v151h120c8.291 0 15-6.709 15-15z" fill="#ff9100"/><circle cx="211" cy="181" fill="#f2f2fc" r="30"/><circle cx="301" cy="181" fill="#e2d9fb" r="30"/><path d="m31 497c0 8.291 6.709 15 15 15h75v-143.822c-43.77 12.103-90 35.619-90 128.822z" fill="#ffb64c"/><path d="m391 368.178v143.822h75c8.291 0 15-6.709 15-15 0-93.203-46.23-116.719-90-128.822z" fill="#ff9100"/></g></svg>