<svg id="Capa_1" enable-background="new 0 0 512 512" height="512" viewBox="0 0 512 512" width="512" xmlns="http://www.w3.org/2000/svg"><g><path d="m440.94 428.108-184.948.055-184.99.055c-6.209 17.076-10.01 39.952-10.01 68.782 0 8.291 6.709 15 15 15h180 180c8.291 0 15-6.709 15-15 .001-28.894-3.819-51.801-10.052-68.892z" fill="#f66"/><path d="m450.993 497c0-28.894-3.82-51.801-10.052-68.892l-184.948.055v83.837h180c8.291 0 15-6.709 15-15z" fill="#e62e2e"/><path d="m426.356 400.977-170.363-.128-170.147-.128c-5.792 7.37-10.818 16.43-14.843 27.497 60.513 15.308 122.73 23.152 184.99 23.159.035 0 .068.004.103.004 62.208 0 124.358-7.956 184.845-23.273-3.971-10.882-8.902-19.837-14.585-27.131z" fill="#f2f2fc"/><path d="m440.94 428.108c-3.97-10.882-8.901-19.838-14.584-27.131l-170.363-.128v50.528c.035 0 .068.004.103.004 62.207 0 124.357-7.956 184.844-23.273z" fill="#e2d9fb"/><path d="m350.891 360.568-94.898-.013-94.819-.011c-27.938 8.906-55.014 14.324-75.328 40.177 55.754 13.475 112.947 20.297 170.147 20.376 57.259.081 114.525-6.594 170.363-20.12-20.29-26.035-48.28-31.745-75.465-40.409z" fill="#ffb3b3"/><path d="m426.356 400.977c-20.29-26.036-48.279-31.745-75.465-40.41l-94.898-.013v60.542c57.259.082 114.525-6.593 170.363-20.119z" fill="#f99"/><path d="m318.477 342.966h-62.485-62.485c-8.399 8.672-19.323 13.427-32.335 17.578 32.028 15.797 58.769 30.456 94.821 30.456 35.901 0 62.805-14.625 94.898-30.432-13.045-4.157-23.998-8.914-32.414-17.602z" fill="#474f54"/><path d="m318.477 342.966h-62.485v48.034c35.901 0 62.805-14.625 94.898-30.432-13.044-4.157-23.997-8.914-32.413-17.602z" fill="#32393f"/><path d="m302.648 307.665c-1.23-7.222-7.471-12.495-14.795-12.495h-31.86-31.86c-7.324 0-13.564 5.273-14.795 12.495-2.842 16.802-8.353 27.583-15.829 35.301 20.723 10.069 39.964 18.034 62.484 18.034s41.761-7.965 62.485-18.034c-7.477-7.718-12.988-18.499-15.83-35.301z" fill="#ffb3b3"/><path d="m302.648 307.665c-1.23-7.222-7.471-12.495-14.795-12.495h-31.86v65.83c22.52 0 41.761-7.965 62.485-18.034-7.477-7.718-12.988-18.499-15.83-35.301z" fill="#f99"/><path d="m496.993 301c-11.001 0-21.782-2.446-31.582-6.987 15.718-6.05 30.117-15.337 42.188-27.407 4.292-4.292 5.581-10.737 3.252-16.348-2.314-5.61-7.793-9.258-13.857-9.258-41.353 0-76-33.647-76-75 0-90.981-74.019-166-165-166-89.005 0-163.127 73.261-165.236 163.056.879 20.581-6.475 40.078-20.669 54.888-14.253 14.883-34.457 23.071-55.082 23.071-6.064 0-11.543 3.647-13.857 9.258-2.329 5.61-1.04 12.056 3.252 16.348 12.07 12.07 26.484 21.357 42.188 27.407-9.8 4.541-20.581 6.987-31.582 6.987-6.064 0-11.543 3.647-13.857 9.258-2.329 5.61-1.04 12.056 3.252 16.348 20.449 20.449 43.979 28.169 66.859 28.169 44.355 0 89.985-29.048 124.102-50.771h60.63 60.659c51.694 32.915 130.829 82.69 190.946 22.588 4.292-4.292 5.581-10.737 3.252-16.348-2.315-5.597-7.794-9.259-13.858-9.259z" fill="#f66"/><path d="m507.598 326.605c4.292-4.292 5.581-10.737 3.252-16.348-2.314-5.596-7.793-9.258-13.857-9.258-11.001 0-21.782-2.446-31.582-6.987 15.718-6.05 30.117-15.337 42.188-27.407 4.292-4.292 5.581-10.737 3.252-16.348-2.314-5.61-7.793-9.258-13.857-9.258-41.353 0-76-33.647-76-75 0-90.981-74.019-166-165-166v304.018h60.659c51.693 32.916 130.828 82.691 190.945 22.588z" fill="#e62e2e"/><path d="m351.735 122.143c-5.625-2.329-12.041-1.055-16.348 3.252l-19.395 19.395-19.395-19.395c-5.859-5.859-15.352-5.859-21.211 0l-19.395 19.395-19.395-19.395c-5.859-5.859-15.352-5.859-21.211 0l-19.395 19.395-19.395-19.395c-4.263-4.292-10.723-5.566-16.348-3.252-5.61 2.314-9.258 7.793-9.258 13.857v90c0 57.891 47.109 105 105 105s105-47.109 105-105v-90c.004-6.064-3.644-11.543-9.254-13.857z" fill="#fcc"/><path d="m360.993 226v-90c0-6.064-3.647-11.543-9.258-13.857-5.625-2.329-12.041-1.055-16.348 3.252l-19.395 19.395-19.395-19.395c-5.859-5.859-15.352-5.859-21.211 0l-19.395 19.395v186.21c57.892 0 105.002-47.109 105.002-105z" fill="#ffb3b3"/></g></svg>